<svg width="257" height="257" viewBox="0 0 257 257" fill="none" xmlns="http://www.w3.org/2000/svg">
<path d="M257 257H0V0H257V257Z" fill="white"/>
<path d="M125.778 214.288C121.462 214.288 117.135 213.792 112.878 212.796C112.756 212.767 112.68 212.646 112.709 212.524C112.737 212.402 112.859 212.326 112.981 212.355C123.344 214.778 134.116 214.217 144.133 210.73C144.252 210.689 144.381 210.751 144.422 210.87C144.463 210.988 144.4 211.117 144.282 211.158C138.3 213.24 132.051 214.288 125.778 214.288Z" fill="black"/>
<path d="M144.208 211.171C144.113 211.171 144.026 211.112 143.993 211.019C143.952 210.9 144.015 210.771 144.133 210.73C144.612 210.563 145.094 210.388 145.565 210.21C145.683 210.165 145.814 210.224 145.858 210.341C145.902 210.458 145.843 210.589 145.726 210.634C145.25 210.814 144.764 210.99 144.282 211.158C144.257 211.167 144.232 211.171 144.208 211.171Z" fill="black"/>
<path d="M127.257 217.708C120.892 217.708 114.501 216.773 108.321 214.894C108.201 214.858 108.134 214.731 108.17 214.611C108.207 214.492 108.334 214.424 108.453 214.46C122.338 218.681 137.304 218.104 150.595 212.833C150.711 212.787 150.844 212.843 150.89 212.96C150.936 213.077 150.879 213.208 150.762 213.254C143.292 216.216 135.295 217.708 127.257 217.708Z" fill="black"/>
<path d="M147.337 208.591L148.106 210.085L149.374 208.69L147.337 208.591ZM148.054 210.706C148.044 210.706 148.034 210.706 148.024 210.704C147.951 210.695 147.886 210.65 147.852 210.584L146.754 208.45C146.717 208.378 146.721 208.291 146.764 208.223C146.809 208.156 146.882 208.114 146.967 208.12L149.876 208.26C149.964 208.265 150.041 208.319 150.075 208.4C150.109 208.481 150.092 208.575 150.032 208.64L148.222 210.632C148.178 210.68 148.117 210.706 148.054 210.706Z" fill="black"/>
<path d="M102.064 66.2363C102.006 66.2363 101.948 66.2142 101.904 66.1701L100.9 65.1691C100.811 65.0808 100.811 64.9372 100.899 64.8484C100.988 64.7598 101.131 64.7598 101.22 64.8479L102.224 65.8488C102.313 65.9372 102.313 66.0809 102.225 66.1697C102.18 66.2142 102.122 66.2363 102.064 66.2363Z" fill="black"/>
<path d="M105.579 69.7398C105.521 69.7398 105.463 69.7176 105.418 69.6735L104.414 68.6726C104.326 68.5843 104.326 68.4407 104.414 68.3518C104.502 68.2632 104.646 68.2632 104.735 68.3514L105.739 69.3523C105.827 69.4407 105.828 69.5843 105.739 69.6731C105.695 69.7176 105.637 69.7398 105.579 69.7398Z" fill="black"/>
<path d="M101.06 69.7398C101.001 69.7398 100.944 69.7176 100.899 69.6731C100.811 69.5843 100.811 69.4407 100.9 69.3523L101.904 68.3514C101.993 68.2628 102.136 68.263 102.225 68.3518C102.313 68.4407 102.313 68.5842 102.224 68.6726L101.22 69.6735C101.176 69.7176 101.118 69.7398 101.06 69.7398Z" fill="black"/>
<path d="M104.574 66.2363C104.517 66.2363 104.458 66.2142 104.414 66.1697C104.326 66.0809 104.326 65.9373 104.414 65.8488L105.418 64.8479C105.508 64.7596 105.651 64.7596 105.739 64.8484C105.828 64.9372 105.827 65.0808 105.739 65.1691L104.735 66.1701C104.69 66.2142 104.633 66.2363 104.574 66.2363Z" fill="black"/>
<path d="M204.382 81.8896C204.012 81.8896 203.643 82.0309 203.363 82.3129C203.094 82.5844 202.946 82.9442 202.948 83.3261C202.95 83.7078 203.101 84.066 203.372 84.3345C203.935 84.8901 204.844 84.8852 205.401 84.325C205.67 84.0536 205.818 83.6938 205.816 83.3119C205.814 82.9301 205.663 82.5719 205.39 82.3034C205.39 82.3032 205.39 82.3032 205.39 82.3032C205.112 82.0274 204.747 81.8896 204.382 81.8896ZM204.382 85.2017C203.902 85.2017 203.421 85.0204 203.054 84.6573C202.695 84.3035 202.496 83.8313 202.494 83.3282C202.491 82.8249 202.686 82.3508 203.04 81.9933C203.773 81.2558 204.971 81.25 205.71 81.9806C206.068 82.3347 206.267 82.8065 206.269 83.3096C206.271 83.813 206.078 84.2872 205.722 84.6445C205.354 85.0157 204.868 85.2017 204.382 85.2017Z" fill="black"/>
<path d="M207.763 194.627L93.4731 200.734C89.8174 200.93 86.854 198.037 86.854 194.273V113.851C86.854 110.087 89.8174 106.878 93.4731 106.683L207.763 100.574C211.419 100.379 214.382 103.272 214.382 107.036V187.458C214.382 191.221 211.419 194.432 207.763 194.627Z" fill="white"/>
<path d="M208.112 100.792C208 100.792 207.887 100.795 207.775 100.801L93.4854 106.909C89.9538 107.098 87.0807 110.212 87.0807 113.852V194.273C87.0807 196.066 87.7675 197.705 89.0146 198.888C90.2113 200.022 91.789 200.598 93.4609 200.508L207.751 194.4L207.763 194.627L207.751 194.4C211.282 194.212 214.155 191.097 214.155 187.458V107.036C214.155 105.243 213.468 103.604 212.221 102.422C211.106 101.364 209.656 100.792 208.112 100.792ZM93.1231 200.971C91.4618 200.971 89.9036 200.355 88.7024 199.217C87.3642 197.948 86.6271 196.193 86.6271 194.273V113.852C86.6271 109.974 89.6928 106.657 93.4609 106.456L207.751 100.348C209.55 100.253 211.246 100.871 212.534 102.092C213.872 103.361 214.609 105.117 214.609 107.036V187.458C214.609 191.334 211.543 194.652 207.775 194.853L93.4854 200.962C93.3641 200.968 93.2434 200.971 93.1231 200.971Z" fill="black"/>
<path d="M199.58 56.3749C205.579 52.6325 208.689 47.7421 210.206 37.9733C211.238 41.4132 211.555 43.9737 211.042 46.6819L214.306 44.8644C214.382 47.5149 213.867 50.7161 211.649 52.74L215.748 50.8467C213.717 55.3382 211.345 63.7204 202.389 60.0097L199.58 56.3749Z" fill="white"/>
<path d="M202.53 59.8229C210.338 63.0227 212.98 56.7763 214.911 52.2127C215.043 51.899 215.172 51.5957 215.298 51.3047L211.744 52.9461C211.644 52.9928 211.522 52.959 211.461 52.8654C211.399 52.7724 211.413 52.6479 211.497 52.5725C213.638 50.6187 214.102 47.5816 214.086 45.2466L211.152 46.8801C211.075 46.9225 210.981 46.9173 210.91 46.8657C210.838 46.8143 210.803 46.7261 210.819 46.6394C211.255 44.3381 211.099 42.0746 210.267 39.0087C208.76 47.7313 205.8 52.6886 199.912 56.4338L202.53 59.8229ZM206.458 61.1524C205.247 61.1524 203.873 60.8701 202.301 60.2193C202.265 60.2042 202.233 60.1796 202.209 60.1484L199.4 56.5136C199.361 56.4628 199.345 56.3979 199.356 56.3347C199.367 56.2716 199.405 56.2163 199.46 56.1824C205.666 52.3113 208.517 47.3667 209.982 37.9384C209.999 37.8336 210.086 37.7541 210.191 37.7468C210.295 37.7417 210.394 37.8063 210.424 37.908C211.451 41.3358 211.728 43.7979 211.346 46.2526L214.196 44.6662C214.265 44.6278 214.349 44.628 214.418 44.6673C214.487 44.7065 214.53 44.7788 214.533 44.858C214.595 47.0251 214.282 49.9085 212.596 52.0531L215.653 50.6407C215.739 50.6012 215.841 50.6192 215.908 50.6856C215.976 50.7524 215.994 50.8538 215.955 50.9403C215.753 51.3886 215.547 51.8747 215.329 52.3896C213.793 56.0193 211.621 61.1524 206.458 61.1524Z" fill="black"/>
<path d="M180.45 58.8739C174.451 55.1314 171.341 50.241 169.824 40.4723C168.792 43.9122 168.475 46.4727 168.988 49.1809L165.724 47.3634C165.648 50.0138 166.163 53.215 168.381 55.239L164.282 53.3457C166.313 57.8371 168.685 66.2193 177.642 62.5088L180.45 58.8739Z" fill="white"/>
<path d="M164.732 53.8037C164.858 54.0947 164.987 54.3981 165.119 54.7117C167.05 59.2753 169.693 65.5218 177.5 62.322L180.118 58.9328C174.23 55.1877 171.27 50.2302 169.763 41.5077C168.931 44.5734 168.775 46.837 169.211 49.1384C169.227 49.2251 169.192 49.3133 169.12 49.3647C169.049 49.4165 168.954 49.4215 168.878 49.3791L165.944 47.7456C165.928 50.0807 166.392 53.1178 168.533 55.0715C168.617 55.1469 168.631 55.2713 168.569 55.3644C168.508 55.4579 168.386 55.4921 168.286 55.4451L164.732 53.8037ZM173.572 63.6514C168.408 63.6514 166.237 58.5185 164.701 54.8885C164.484 54.3737 164.277 53.8877 164.075 53.4392C164.036 53.3528 164.054 53.2513 164.122 53.1847C164.189 53.1182 164.292 53.1003 164.377 53.1397L167.434 54.5521C165.748 52.4075 165.435 49.5241 165.497 47.357C165.5 47.2777 165.543 47.2054 165.612 47.1663C165.681 47.1273 165.765 47.1266 165.834 47.1652L168.683 48.7517C168.302 46.2969 168.579 43.8347 169.606 40.407C169.636 40.3053 169.732 40.2412 169.839 40.2458C169.945 40.2531 170.031 40.3325 170.048 40.4374C171.513 49.8657 174.364 54.8103 180.57 58.6813C180.625 58.7152 180.663 58.7707 180.674 58.8338C180.685 58.8969 180.669 58.9619 180.63 59.0125L177.821 62.6473C177.797 62.6786 177.765 62.7032 177.729 62.7183C176.158 63.3689 174.783 63.6514 173.572 63.6514Z" fill="black"/>
<path d="M204.551 61.9944C205.427 69.7552 199.832 76.7553 192.052 77.6295C184.272 78.5037 177.255 72.9209 176.379 65.16C175.502 57.399 181.099 50.3988 188.879 49.5247C196.658 48.6505 203.676 54.2334 204.551 61.9944Z" fill="black"/>
<path d="M204.688 61.5564C205.538 69.0869 200.108 75.8792 192.56 76.7274C185.011 77.5757 178.203 72.1586 177.352 64.6281C176.501 57.0976 181.932 50.3053 189.481 49.4571C197.03 48.6089 203.838 54.0259 204.688 61.5564Z" fill="white"/>
<path d="M191.03 49.5968C190.527 49.5968 190.019 49.625 189.506 49.6825C185.915 50.086 182.697 51.8603 180.444 54.6783C178.191 57.4964 177.173 61.0208 177.578 64.6027C178.412 71.9968 185.12 77.3356 192.534 76.5019C196.125 76.0987 199.344 74.3244 201.597 71.5061C203.849 68.6881 204.868 65.1637 204.463 61.5819C203.686 54.6984 197.817 49.5968 191.03 49.5968ZM191.01 77.0414C183.995 77.0418 177.93 71.7687 177.126 64.6537C176.708 60.9513 177.761 57.308 180.089 54.395C182.419 51.4823 185.744 49.6486 189.455 49.2314C197.116 48.3715 204.051 53.8883 204.914 61.531C205.332 65.2334 204.28 68.8767 201.951 71.7895C199.622 74.7023 196.297 76.536 192.586 76.953C192.056 77.0123 191.53 77.0414 191.01 77.0414Z" fill="black"/>
<path d="M202.49 61.8035C203.204 68.1231 198.648 73.8233 192.312 74.535C185.978 75.2468 180.264 70.7008 179.549 64.3811C178.836 58.0615 183.393 52.3614 189.729 51.6495C196.063 50.9377 201.777 55.4838 202.49 61.8035Z" fill="white"/>
<path d="M201.364 68.4341C201.33 68.4341 201.295 68.4265 201.263 68.4103C201.15 68.3545 201.105 68.2183 201.16 68.1061C201.642 67.1387 201.981 66.1112 202.168 65.0517C202.189 64.9284 202.306 64.8446 202.431 64.8679C202.554 64.8896 202.636 65.0072 202.615 65.1306C202.42 66.2328 202.068 67.3019 201.567 68.3082C201.527 68.3879 201.447 68.4341 201.364 68.4341Z" fill="black"/>
<path d="M181 57.6002C180.962 57.6002 180.923 57.5904 180.888 57.5702C180.779 57.5077 180.742 57.3689 180.804 57.2603C182.664 54.023 185.991 51.8412 189.703 51.4241C194.223 50.9181 198.54 52.9837 200.973 56.8195C201.04 56.9252 201.009 57.0654 200.903 57.1325C200.797 57.1995 200.657 57.1684 200.59 57.0623C198.251 53.3743 194.101 51.3872 189.753 51.8751C186.184 52.276 182.986 54.3737 181.197 57.4864C181.155 57.5595 181.079 57.6002 181 57.6002Z" fill="black"/>
<path d="M191.012 74.835C185.107 74.835 180.001 70.3962 179.324 64.4067C179.099 62.4077 179.391 60.3777 180.17 58.5361C180.22 58.4205 180.353 58.3668 180.467 58.4155C180.584 58.4642 180.637 58.5973 180.589 58.7128C179.839 60.4829 179.559 62.434 179.776 64.3557C180.474 70.5412 186.085 75.0087 192.287 74.3095C192.412 74.2968 192.524 74.3853 192.538 74.5099C192.552 74.6343 192.462 74.7464 192.338 74.7606C191.893 74.8104 191.45 74.835 191.012 74.835Z" fill="black"/>
<path d="M190.88 71.2895L190.668 69.4083C189.332 69.4983 188.001 69.2869 187.198 68.936L187.532 66.5523C188.417 66.9142 189.635 67.1984 190.925 67.0535C192.056 66.9263 192.781 66.4037 192.691 65.6116C192.607 64.8591 191.918 64.4553 190.393 64.1253C188.189 63.6511 186.628 62.8238 186.411 60.903C186.214 59.1606 187.29 57.6559 189.368 57.0015L189.155 55.1203L191.101 54.9017L191.297 56.6442C192.634 56.5543 193.559 56.7311 194.249 56.9743L193.926 59.2765C193.385 59.1167 192.421 58.7639 190.992 58.9244C189.702 59.0694 189.347 59.6708 189.41 60.2252C189.484 60.8787 190.225 61.2164 191.984 61.6605C194.44 62.2267 195.516 63.2087 195.717 64.9909C195.916 66.7532 194.836 68.3986 192.598 69.0512L192.826 71.0709L190.88 71.2895Z" fill="black"/>
<path d="M167.681 102.389C175.106 97.7582 178.953 91.7062 180.832 79.6177C182.108 83.8744 182.501 87.0432 181.866 90.3944L185.905 88.1453C185.999 91.4252 185.363 95.3867 182.617 97.8912L187.69 95.5484C185.176 101.106 182.242 111.479 171.157 106.887L167.681 102.389Z" fill="white"/>
<path d="M171.3 106.701C181.02 110.693 184.304 102.931 186.703 97.2597C186.887 96.8248 187.064 96.4064 187.238 96.0067L182.713 98.0971C182.611 98.1441 182.49 98.1096 182.428 98.0165C182.366 97.9235 182.382 97.7989 182.465 97.7233C185.156 95.2676 185.717 91.4398 185.686 88.5269L181.977 90.5926C181.899 90.6352 181.805 90.6298 181.733 90.5782C181.662 90.5268 181.626 90.4386 181.642 90.3521C182.196 87.4375 181.982 84.5728 180.895 80.6509C179.041 91.6005 175.372 97.7858 168.013 102.448L171.3 106.701ZM176.234 108.264C174.662 108.264 172.947 107.874 171.071 107.097C171.034 107.082 171.002 107.057 170.978 107.026L167.502 102.528C167.462 102.477 167.447 102.412 167.458 102.349C167.469 102.286 167.507 102.231 167.561 102.197C175.157 97.4588 178.815 91.1185 180.608 79.5829C180.625 79.4781 180.711 79.3985 180.817 79.3913C180.923 79.3869 181.02 79.4508 181.05 79.5525C182.333 83.8369 182.668 86.8991 182.172 89.9643L185.795 87.9469C185.863 87.9087 185.948 87.9089 186.017 87.9481C186.086 87.9873 186.13 88.0595 186.132 88.1388C186.21 90.872 185.806 94.5289 183.602 97.1866L187.595 95.3423C187.68 95.3028 187.783 95.3206 187.85 95.3872C187.917 95.4539 187.936 95.5554 187.897 95.6417C187.645 96.1974 187.391 96.7993 187.121 97.4365C185.932 100.247 184.452 103.745 182.024 105.968C180.351 107.5 178.435 108.264 176.234 108.264Z" fill="black"/>
<path d="M145.165 98.4936C136.196 92.8991 131.548 85.5883 129.278 70.9848C127.737 76.1272 127.262 79.9551 128.03 84.0034L123.15 81.2865C123.037 85.2486 123.806 90.0343 127.121 93.0597L120.995 90.2296C124.031 96.9438 127.576 109.475 140.967 103.928L145.165 98.4936Z" fill="white"/>
<path d="M121.447 90.6883C121.673 91.205 121.903 91.7489 122.143 92.3155C125.05 99.1862 129.029 108.591 140.824 103.741L144.833 98.5528C135.88 92.8953 131.443 85.3818 129.214 72.0165C127.849 76.8665 127.574 80.382 128.252 83.961C128.269 84.0476 128.234 84.1357 128.163 84.1871C128.091 84.239 127.996 84.2441 127.919 84.2016L123.369 81.668C123.319 85.2061 123.985 89.8912 127.275 92.892C127.358 92.9676 127.372 93.092 127.311 93.1851C127.249 93.2786 127.129 93.3127 127.027 93.2657L121.447 90.6883ZM134.835 105.542C132.186 105.542 129.882 104.624 127.871 102.782C124.945 100.103 123.16 95.8832 121.725 92.4923C121.4 91.7223 121.091 90.9948 120.788 90.323C120.749 90.2366 120.767 90.1351 120.834 90.0684C120.902 90.002 121.004 89.984 121.089 90.0235L126.107 92.341C123.332 89.1293 122.828 84.6294 122.923 81.2802C122.926 81.2008 122.969 81.1285 123.038 81.0894C123.107 81.0504 123.191 81.0497 123.26 81.0882L127.723 83.5726C127.101 79.8448 127.499 76.1331 129.06 70.9197C129.091 70.8178 129.188 70.7545 129.294 70.7585C129.4 70.7658 129.486 70.8453 129.502 70.9501C131.67 84.9006 136.095 92.5692 145.285 98.3012C145.34 98.335 145.377 98.3904 145.388 98.4536C145.399 98.5167 145.384 98.5816 145.345 98.6323L141.145 104.066C141.122 104.097 141.09 104.122 141.053 104.137C138.793 105.073 136.726 105.542 134.835 105.542Z" fill="black"/>
<path d="M173.929 102.689C173.929 113.648 165.024 122.532 154.039 122.532C143.053 122.532 134.148 113.648 134.148 102.689C134.148 91.7303 143.053 82.8462 154.039 82.8462C165.024 82.8462 173.929 91.7303 173.929 102.689Z" fill="black"/>
<path d="M174.189 102.1C174.189 112.734 165.548 121.354 154.889 121.354C144.229 121.354 135.588 112.734 135.588 102.1C135.588 91.4665 144.229 82.8462 154.889 82.8462C165.548 82.8462 174.189 91.4665 174.189 102.1Z" fill="white"/>
<path d="M154.889 83.0731C144.371 83.0731 135.815 91.6086 135.815 102.1C135.815 112.592 144.371 121.127 154.889 121.127C165.406 121.127 173.962 112.592 173.962 102.1C173.962 91.6086 165.406 83.0731 154.889 83.0731ZM154.889 121.581C144.121 121.581 135.362 112.842 135.362 102.1C135.362 91.3585 144.121 82.6193 154.889 82.6193C165.656 82.6193 174.417 91.3585 174.417 102.1C174.417 112.842 165.656 121.581 154.889 121.581Z" fill="black"/>
<path d="M171.086 102.1C171.086 111.024 163.834 118.258 154.889 118.258C145.943 118.258 138.692 111.024 138.692 102.1C138.692 93.1764 145.943 85.9422 154.889 85.9422C163.834 85.9422 171.086 93.1764 171.086 102.1Z" fill="white"/>
<path d="M168.506 111.08C168.464 111.08 168.42 111.068 168.382 111.044C168.277 110.975 168.248 110.835 168.315 110.73C169.144 109.449 169.782 108.061 170.212 106.605C170.247 106.485 170.373 106.415 170.494 106.451C170.614 106.486 170.682 106.613 170.647 106.733C170.205 108.231 169.549 109.659 168.697 110.976C168.653 111.044 168.58 111.08 168.506 111.08Z" fill="black"/>
<path d="M169.468 95.2791C169.384 95.2791 169.303 95.2322 169.264 95.1515C166.568 89.611 161.059 86.1691 154.889 86.1691C149.82 86.1691 145.002 88.6069 142.001 92.6901C141.927 92.791 141.785 92.8129 141.684 92.7387C141.583 92.6644 141.561 92.5225 141.636 92.4216C144.722 88.2223 149.676 85.7154 154.889 85.7154C161.235 85.7154 166.899 89.255 169.671 94.953C169.727 95.0655 169.68 95.2013 169.568 95.2563C169.535 95.2719 169.502 95.2791 169.468 95.2791Z" fill="black"/>
<path d="M154.889 118.485C145.833 118.485 138.465 111.135 138.465 102.1C138.465 99.2934 139.189 96.5242 140.557 94.0919C140.619 93.9826 140.757 93.9435 140.866 94.0055C140.976 94.0668 141.014 94.2051 140.952 94.3143C139.622 96.6788 138.919 99.3712 138.919 102.1C138.919 110.884 146.083 118.031 154.889 118.031C155.014 118.031 155.116 118.133 155.116 118.258C155.116 118.383 155.014 118.485 154.889 118.485Z" fill="black"/>
<path d="M153.403 113.509V110.852C151.525 110.768 149.704 110.265 148.639 109.65L149.479 106.378C150.657 107.021 152.311 107.609 154.132 107.609C155.73 107.609 156.822 106.993 156.822 105.875C156.822 104.813 155.926 104.142 153.852 103.442C150.853 102.436 148.807 101.038 148.807 98.3254C148.807 95.8649 150.544 93.9356 153.543 93.3484V90.692H156.29V93.1526C158.168 93.2365 159.429 93.628 160.355 94.0754L159.542 97.2349C158.813 96.9274 157.524 96.2842 155.506 96.2842C153.684 96.2842 153.095 97.0671 153.095 97.8501C153.095 98.7728 154.076 99.36 156.459 100.255C159.794 101.429 161.139 102.967 161.139 105.483C161.139 107.972 159.374 110.097 156.15 110.656V113.509H153.403Z" fill="black"/>
<path d="M210.765 202.678H92.7488C88.9902 202.678 85.9431 199.631 85.9431 195.873V115.432C85.9431 111.674 88.9902 108.627 92.7488 108.627H210.765C214.523 108.627 217.57 111.674 217.57 115.432V195.873C217.57 199.631 214.523 202.678 210.765 202.678Z" fill="white"/>
<path d="M92.7487 108.853C89.1212 108.853 86.1698 111.804 86.1698 115.432V195.873C86.1698 199.501 89.1212 202.452 92.7487 202.452H210.765C214.392 202.452 217.344 199.501 217.344 195.873V115.432C217.344 111.804 214.392 108.853 210.765 108.853H92.7487ZM210.765 202.906H92.7487C88.8708 202.906 85.7161 199.751 85.7161 195.873V115.432C85.7161 111.554 88.8708 108.4 92.7487 108.4H210.765C214.642 108.4 217.797 111.554 217.797 115.432V195.873C217.797 199.751 214.642 202.906 210.765 202.906Z" fill="black"/>
<path d="M103.018 112.178H100.296C100.171 112.178 100.069 112.077 100.069 111.951C100.069 111.826 100.171 111.724 100.296 111.724H103.018C103.143 111.724 103.245 111.826 103.245 111.951C103.245 112.077 103.143 112.178 103.018 112.178ZM108.463 112.178H105.74C105.615 112.178 105.514 112.077 105.514 111.951C105.514 111.826 105.615 111.724 105.74 111.724H108.463C108.589 111.724 108.689 111.826 108.689 111.951C108.689 112.077 108.589 112.178 108.463 112.178ZM113.908 112.178H111.185C111.06 112.178 110.958 112.077 110.958 111.951C110.958 111.826 111.06 111.724 111.185 111.724H113.908C114.033 111.724 114.135 111.826 114.135 111.951C114.135 112.077 114.033 112.178 113.908 112.178ZM119.352 112.178H116.63C116.504 112.178 116.402 112.077 116.402 111.951C116.402 111.826 116.504 111.724 116.63 111.724H119.352C119.477 111.724 119.579 111.826 119.579 111.951C119.579 112.077 119.477 112.178 119.352 112.178ZM124.797 112.178H122.074C121.949 112.178 121.848 112.077 121.848 111.951C121.848 111.826 121.949 111.724 122.074 111.724H124.797C124.923 111.724 125.023 111.826 125.023 111.951C125.023 112.077 124.923 112.178 124.797 112.178ZM130.241 112.178H127.519C127.394 112.178 127.292 112.077 127.292 111.951C127.292 111.826 127.394 111.724 127.519 111.724H130.241C130.367 111.724 130.469 111.826 130.469 111.951C130.469 112.077 130.367 112.178 130.241 112.178ZM135.686 112.178H132.964C132.838 112.178 132.736 112.077 132.736 111.951C132.736 111.826 132.838 111.724 132.964 111.724H135.686C135.811 111.724 135.913 111.826 135.913 111.951C135.913 112.077 135.811 112.178 135.686 112.178ZM141.13 112.178H138.408C138.282 112.178 138.182 112.077 138.182 111.951C138.182 111.826 138.282 111.724 138.408 111.724H141.13C141.255 111.724 141.357 111.826 141.357 111.951C141.357 112.077 141.255 112.178 141.13 112.178ZM146.575 112.178H143.853C143.728 112.178 143.626 112.077 143.626 111.951C143.626 111.826 143.728 111.724 143.853 111.724H146.575C146.701 111.724 146.801 111.826 146.801 111.951C146.801 112.077 146.701 112.178 146.575 112.178ZM152.02 112.178H149.297C149.172 112.178 149.07 112.077 149.07 111.951C149.07 111.826 149.172 111.724 149.297 111.724H152.02C152.145 111.724 152.247 111.826 152.247 111.951C152.247 112.077 152.145 112.178 152.02 112.178ZM157.464 112.178H154.742C154.616 112.178 154.516 112.077 154.516 111.951C154.516 111.826 154.616 111.724 154.742 111.724H157.464C157.589 111.724 157.691 111.826 157.691 111.951C157.691 112.077 157.589 112.178 157.464 112.178ZM162.909 112.178H160.187C160.062 112.178 159.96 112.077 159.96 111.951C159.96 111.826 160.062 111.724 160.187 111.724H162.909C163.035 111.724 163.135 111.826 163.135 111.951C163.135 112.077 163.035 112.178 162.909 112.178ZM168.354 112.178H165.631C165.506 112.178 165.404 112.077 165.404 111.951C165.404 111.826 165.506 111.724 165.631 111.724H168.354C168.479 111.724 168.581 111.826 168.581 111.951C168.581 112.077 168.479 112.178 168.354 112.178ZM173.798 112.178H171.076C170.95 112.178 170.849 112.077 170.849 111.951C170.849 111.826 170.95 111.724 171.076 111.724H173.798C173.923 111.724 174.025 111.826 174.025 111.951C174.025 112.077 173.923 112.178 173.798 112.178ZM179.243 112.178H176.521C176.396 112.178 176.294 112.077 176.294 111.951C176.294 111.826 176.396 111.724 176.521 111.724H179.243C179.369 111.724 179.469 111.826 179.469 111.951C179.469 112.077 179.369 112.178 179.243 112.178ZM184.687 112.178H181.965C181.84 112.178 181.738 112.077 181.738 111.951C181.738 111.826 181.84 111.724 181.965 111.724H184.687C184.813 111.724 184.915 111.826 184.915 111.951C184.915 112.077 184.813 112.178 184.687 112.178ZM190.132 112.178H187.41C187.284 112.178 187.182 112.077 187.182 111.951C187.182 111.826 187.284 111.724 187.41 111.724H190.132C190.257 111.724 190.359 111.826 190.359 111.951C190.359 112.077 190.257 112.178 190.132 112.178ZM195.577 112.178H192.854C192.728 112.178 192.628 112.077 192.628 111.951C192.628 111.826 192.728 111.724 192.854 111.724H195.577C195.701 111.724 195.803 111.826 195.803 111.951C195.803 112.077 195.701 112.178 195.577 112.178ZM201.021 112.178H198.299C198.174 112.178 198.072 112.077 198.072 111.951C198.072 111.826 198.174 111.724 198.299 111.724H201.021C201.147 111.724 201.248 111.826 201.248 111.951C201.248 112.077 201.147 112.178 201.021 112.178ZM206.466 112.178H203.743C203.618 112.178 203.516 112.077 203.516 111.951C203.516 111.826 203.618 111.724 203.743 111.724H206.466C206.591 111.724 206.693 111.826 206.693 111.951C206.693 112.077 206.591 112.178 206.466 112.178ZM94.8518 112.198C94.7354 112.198 94.6364 112.11 94.6261 111.991C94.615 111.866 94.7074 111.756 94.8321 111.746C94.9874 111.731 95.1456 111.724 95.3026 111.724H97.5736C97.6991 111.724 97.8005 111.826 97.8005 111.951C97.8005 112.077 97.6991 112.178 97.5736 112.178H95.3026C95.1589 112.178 95.0139 112.185 94.872 112.197C94.8651 112.198 94.8585 112.198 94.8518 112.198ZM211.801 112.814C211.763 112.814 211.725 112.804 211.69 112.785C210.98 112.388 210.17 112.178 209.352 112.178H209.188C209.062 112.178 208.962 112.077 208.962 111.951C208.962 111.826 209.062 111.724 209.188 111.724H209.352C210.248 111.724 211.134 111.954 211.912 112.389C212.021 112.45 212.06 112.588 211.999 112.698C211.957 112.772 211.88 112.814 211.801 112.814ZM90.666 115.253C90.6365 115.253 90.6066 115.247 90.5776 115.235C90.4621 115.186 90.4083 115.053 90.4571 114.938C90.8275 114.061 91.4309 113.3 92.2021 112.736C92.3032 112.662 92.4452 112.683 92.5192 112.785C92.5929 112.886 92.5711 113.028 92.4698 113.102C91.765 113.618 91.2134 114.314 90.8749 115.114C90.8384 115.201 90.7544 115.253 90.666 115.253ZM214.383 117.306C214.258 117.306 214.157 117.204 214.157 117.079V116.983C214.157 116.141 213.936 115.313 213.519 114.588C213.456 114.48 213.493 114.341 213.602 114.279C213.71 114.216 213.85 114.253 213.911 114.362C214.369 115.156 214.61 116.061 214.61 116.983V117.079C214.61 117.204 214.509 117.306 214.383 117.306ZM90.2712 120.644C90.1458 120.644 90.0444 120.542 90.0444 120.417V117.695C90.0444 117.569 90.1458 117.468 90.2712 117.468C90.3966 117.468 90.4981 117.569 90.4981 117.695V120.417C90.4981 120.542 90.3966 120.644 90.2712 120.644ZM214.383 122.75C214.258 122.75 214.157 122.65 214.157 122.524V119.801C214.157 119.677 214.258 119.575 214.383 119.575C214.509 119.575 214.61 119.677 214.61 119.801V122.524C214.61 122.65 214.509 122.75 214.383 122.75ZM90.2712 126.088C90.1458 126.088 90.0444 125.987 90.0444 125.861V123.139C90.0444 123.014 90.1458 122.912 90.2712 122.912C90.3966 122.912 90.4981 123.014 90.4981 123.139V125.861C90.4981 125.987 90.3966 126.088 90.2712 126.088ZM214.383 128.196C214.258 128.196 214.157 128.094 214.157 127.969V125.246C214.157 125.121 214.258 125.019 214.383 125.019C214.509 125.019 214.61 125.121 214.61 125.246V127.969C214.61 128.094 214.509 128.196 214.383 128.196ZM90.2712 131.533C90.1458 131.533 90.0444 131.431 90.0444 131.305V128.583C90.0444 128.458 90.1458 128.357 90.2712 128.357C90.3966 128.357 90.4981 128.458 90.4981 128.583V131.305C90.4981 131.431 90.3966 131.533 90.2712 131.533ZM214.383 133.64C214.258 133.64 214.157 133.538 214.157 133.413V130.691C214.157 130.565 214.258 130.463 214.383 130.463C214.509 130.463 214.61 130.565 214.61 130.691V133.413C214.61 133.538 214.509 133.64 214.383 133.64ZM90.2712 136.977C90.1458 136.977 90.0444 136.876 90.0444 136.751V134.029C90.0444 133.903 90.1458 133.801 90.2712 133.801C90.3966 133.801 90.4981 133.903 90.4981 134.029V136.751C90.4981 136.876 90.3966 136.977 90.2712 136.977ZM214.383 139.084C214.258 139.084 214.157 138.984 214.157 138.857V136.135C214.157 136.01 214.258 135.909 214.383 135.909C214.509 135.909 214.61 136.01 214.61 136.135V138.857C214.61 138.984 214.509 139.084 214.383 139.084ZM90.2712 142.422C90.1458 142.422 90.0444 142.32 90.0444 142.195V139.473C90.0444 139.347 90.1458 139.246 90.2712 139.246C90.3966 139.246 90.4981 139.347 90.4981 139.473V142.195C90.4981 142.32 90.3966 142.422 90.2712 142.422ZM214.383 144.529C214.258 144.529 214.157 144.428 214.157 144.302V141.58C214.157 141.455 214.258 141.353 214.383 141.353C214.509 141.353 214.61 141.455 214.61 141.58V144.302C214.61 144.428 214.509 144.529 214.383 144.529ZM90.2712 147.866C90.1458 147.866 90.0444 147.765 90.0444 147.639V144.917C90.0444 144.792 90.1458 144.691 90.2712 144.691C90.3966 144.691 90.4981 144.792 90.4981 144.917V147.639C90.4981 147.765 90.3966 147.866 90.2712 147.866ZM214.383 149.974C214.258 149.974 214.157 149.872 214.157 149.747V147.025C214.157 146.899 214.258 146.797 214.383 146.797C214.509 146.797 214.61 146.899 214.61 147.025V149.747C214.61 149.872 214.509 149.974 214.383 149.974ZM90.2712 153.311C90.1458 153.311 90.0444 153.21 90.0444 153.085V150.362C90.0444 150.237 90.1458 150.135 90.2712 150.135C90.3966 150.135 90.4981 150.237 90.4981 150.362V153.085C90.4981 153.21 90.3966 153.311 90.2712 153.311ZM214.383 155.418C214.258 155.418 214.157 155.316 214.157 155.191V152.469C214.157 152.343 214.258 152.243 214.383 152.243C214.509 152.243 214.61 152.343 214.61 152.469V155.191C214.61 155.316 214.509 155.418 214.383 155.418ZM90.2712 158.756C90.1458 158.756 90.0444 158.654 90.0444 158.529V155.807C90.0444 155.681 90.1458 155.58 90.2712 155.58C90.3966 155.58 90.4981 155.681 90.4981 155.807V158.529C90.4981 158.654 90.3966 158.756 90.2712 158.756ZM214.383 160.862C214.258 160.862 214.157 160.762 214.157 160.636V157.914C214.157 157.789 214.258 157.687 214.383 157.687C214.509 157.687 214.61 157.789 214.61 157.914V160.636C214.61 160.762 214.509 160.862 214.383 160.862ZM90.2712 164.2C90.1458 164.2 90.0444 164.099 90.0444 163.973V161.251C90.0444 161.126 90.1458 161.025 90.2712 161.025C90.3966 161.025 90.4981 161.126 90.4981 161.251V163.973C90.4981 164.099 90.3966 164.2 90.2712 164.2ZM214.383 166.308C214.258 166.308 214.157 166.206 214.157 166.081V163.358C214.157 163.233 214.258 163.131 214.383 163.131C214.509 163.131 214.61 163.233 214.61 163.358V166.081C214.61 166.206 214.509 166.308 214.383 166.308ZM90.2712 169.645C90.1458 169.645 90.0444 169.544 90.0444 169.419V166.696C90.0444 166.571 90.1458 166.469 90.2712 166.469C90.3966 166.469 90.4981 166.571 90.4981 166.696V169.419C90.4981 169.544 90.3966 169.645 90.2712 169.645ZM214.383 171.752C214.258 171.752 214.157 171.65 214.157 171.525V168.803C214.157 168.677 214.258 168.577 214.383 168.577C214.509 168.577 214.61 168.677 214.61 168.803V171.525C214.61 171.65 214.509 171.752 214.383 171.752ZM90.2712 175.09C90.1458 175.09 90.0444 174.988 90.0444 174.863V172.141C90.0444 172.015 90.1458 171.913 90.2712 171.913C90.3966 171.913 90.4981 172.015 90.4981 172.141V174.863C90.4981 174.988 90.3966 175.09 90.2712 175.09ZM214.383 177.196C214.258 177.196 214.157 177.096 214.157 176.97V174.248C214.157 174.123 214.258 174.021 214.383 174.021C214.509 174.021 214.61 174.123 214.61 174.248V176.97C214.61 177.096 214.509 177.196 214.383 177.196ZM90.2712 180.534C90.1458 180.534 90.0444 180.432 90.0444 180.307V177.585C90.0444 177.46 90.1458 177.358 90.2712 177.358C90.3966 177.358 90.4981 177.46 90.4981 177.585V180.307C90.4981 180.432 90.3966 180.534 90.2712 180.534ZM214.383 182.642C214.258 182.642 214.157 182.54 214.157 182.414V179.692C214.157 179.567 214.258 179.465 214.383 179.465C214.509 179.465 214.61 179.567 214.61 179.692V182.414C214.61 182.54 214.509 182.642 214.383 182.642ZM90.2712 185.979C90.1458 185.979 90.0444 185.878 90.0444 185.752V183.029C90.0444 182.904 90.1458 182.803 90.2712 182.803C90.3966 182.803 90.4981 182.904 90.4981 183.029V185.752C90.4981 185.878 90.3966 185.979 90.2712 185.979ZM214.383 188.086C214.258 188.086 214.157 187.984 214.157 187.859V185.137C214.157 185.011 214.258 184.909 214.383 184.909C214.509 184.909 214.61 185.011 214.61 185.137V187.859C214.61 187.984 214.509 188.086 214.383 188.086ZM90.2712 191.424C90.1458 191.424 90.0444 191.322 90.0444 191.197V188.475C90.0444 188.349 90.1458 188.247 90.2712 188.247C90.3966 188.247 90.4981 188.349 90.4981 188.475V191.197C90.4981 191.322 90.3966 191.424 90.2712 191.424ZM214.383 193.53C214.258 193.53 214.157 193.43 214.157 193.304V190.581C214.157 190.456 214.258 190.355 214.383 190.355C214.509 190.355 214.61 190.456 214.61 190.581V193.304C214.61 193.43 214.509 193.53 214.383 193.53ZM90.7322 196.8C90.6465 196.8 90.5643 196.752 90.526 196.669C90.2063 195.976 90.0442 195.236 90.0444 194.467V193.919C90.0444 193.793 90.1458 193.692 90.2712 193.692C90.3966 193.692 90.4981 193.793 90.4981 193.919V194.467C90.4978 195.169 90.6459 195.846 90.938 196.479C90.9905 196.593 90.9409 196.727 90.8271 196.78C90.7962 196.794 90.7639 196.8 90.7322 196.8ZM212.67 198.476C212.607 198.476 212.544 198.449 212.5 198.399C212.417 198.304 212.426 198.161 212.521 198.078C213.177 197.501 213.665 196.759 213.929 195.932C213.967 195.812 214.094 195.747 214.215 195.785C214.334 195.823 214.4 195.95 214.362 196.07C214.072 196.976 213.538 197.788 212.82 198.419C212.776 198.457 212.723 198.476 212.67 198.476ZM95.0155 199.717C95.0113 199.717 95.0068 199.717 95.0024 199.717C94.0496 199.663 93.1298 199.351 92.3422 198.813C92.2387 198.742 92.2119 198.601 92.2825 198.498C92.3531 198.394 92.4948 198.368 92.5978 198.438C93.3172 198.929 94.1575 199.215 95.0281 199.263C95.1531 199.271 95.2488 199.378 95.2417 199.503C95.2351 199.623 95.1349 199.717 95.0155 199.717ZM100.46 199.725H97.7374C97.612 199.725 97.5105 199.623 97.5105 199.498C97.5105 199.372 97.612 199.272 97.7374 199.272H100.46C100.585 199.272 100.687 199.372 100.687 199.498C100.687 199.623 100.585 199.725 100.46 199.725ZM105.905 199.725H103.182C103.057 199.725 102.955 199.623 102.955 199.498C102.955 199.372 103.057 199.272 103.182 199.272H105.905C106.03 199.272 106.131 199.372 106.131 199.498C106.131 199.623 106.03 199.725 105.905 199.725ZM111.349 199.725H108.627C108.501 199.725 108.4 199.623 108.4 199.498C108.4 199.372 108.501 199.272 108.627 199.272H111.349C111.474 199.272 111.576 199.372 111.576 199.498C111.576 199.623 111.474 199.725 111.349 199.725ZM116.793 199.725H114.071C113.946 199.725 113.845 199.623 113.845 199.498C113.845 199.372 113.946 199.272 114.071 199.272H116.793C116.919 199.272 117.02 199.372 117.02 199.498C117.02 199.623 116.919 199.725 116.793 199.725ZM122.238 199.725H119.515C119.391 199.725 119.289 199.623 119.289 199.498C119.289 199.372 119.391 199.272 119.515 199.272H122.238C122.364 199.272 122.465 199.372 122.465 199.498C122.465 199.623 122.364 199.725 122.238 199.725ZM127.683 199.725H124.961C124.835 199.725 124.733 199.623 124.733 199.498C124.733 199.372 124.835 199.272 124.961 199.272H127.683C127.808 199.272 127.91 199.372 127.91 199.498C127.91 199.623 127.808 199.725 127.683 199.725ZM133.127 199.725H130.405C130.279 199.725 130.178 199.623 130.178 199.498C130.178 199.372 130.279 199.272 130.405 199.272H133.127C133.252 199.272 133.354 199.372 133.354 199.498C133.354 199.623 133.252 199.725 133.127 199.725ZM138.572 199.725H135.849C135.724 199.725 135.623 199.623 135.623 199.498C135.623 199.372 135.724 199.272 135.849 199.272H138.572C138.698 199.272 138.799 199.372 138.799 199.498C138.799 199.623 138.698 199.725 138.572 199.725ZM144.017 199.725H141.294C141.169 199.725 141.067 199.623 141.067 199.498C141.067 199.372 141.169 199.272 141.294 199.272H144.017C144.142 199.272 144.244 199.372 144.244 199.498C144.244 199.623 144.142 199.725 144.017 199.725ZM149.461 199.725H146.739C146.613 199.725 146.512 199.623 146.512 199.498C146.512 199.372 146.613 199.272 146.739 199.272H149.461C149.586 199.272 149.688 199.372 149.688 199.498C149.688 199.623 149.586 199.725 149.461 199.725ZM154.906 199.725H152.183C152.058 199.725 151.957 199.623 151.957 199.498C151.957 199.372 152.058 199.272 152.183 199.272H154.906C155.031 199.272 155.132 199.372 155.132 199.498C155.132 199.623 155.031 199.725 154.906 199.725ZM160.351 199.725H157.628C157.503 199.725 157.401 199.623 157.401 199.498C157.401 199.372 157.503 199.272 157.628 199.272H160.351C160.476 199.272 160.578 199.372 160.578 199.498C160.578 199.623 160.476 199.725 160.351 199.725ZM165.795 199.725H163.073C162.947 199.725 162.845 199.623 162.845 199.498C162.845 199.372 162.947 199.272 163.073 199.272H165.795C165.92 199.272 166.022 199.372 166.022 199.498C166.022 199.623 165.92 199.725 165.795 199.725ZM171.239 199.725H168.517C168.392 199.725 168.291 199.623 168.291 199.498C168.291 199.372 168.392 199.272 168.517 199.272H171.239C171.365 199.272 171.466 199.372 171.466 199.498C171.466 199.623 171.365 199.725 171.239 199.725ZM176.684 199.725H173.962C173.837 199.725 173.735 199.623 173.735 199.498C173.735 199.372 173.837 199.272 173.962 199.272H176.684C176.81 199.272 176.911 199.372 176.911 199.498C176.911 199.623 176.81 199.725 176.684 199.725ZM182.129 199.725H179.407C179.281 199.725 179.179 199.623 179.179 199.498C179.179 199.372 179.281 199.272 179.407 199.272H182.129C182.254 199.272 182.356 199.372 182.356 199.498C182.356 199.623 182.254 199.725 182.129 199.725ZM187.573 199.725H184.851C184.725 199.725 184.625 199.623 184.625 199.498C184.625 199.372 184.725 199.272 184.851 199.272H187.573C187.698 199.272 187.8 199.372 187.8 199.498C187.8 199.623 187.698 199.725 187.573 199.725ZM193.018 199.725H190.296C190.171 199.725 190.069 199.623 190.069 199.498C190.069 199.372 190.171 199.272 190.296 199.272H193.018C193.144 199.272 193.244 199.372 193.244 199.498C193.244 199.623 193.144 199.725 193.018 199.725ZM198.463 199.725H195.74C195.615 199.725 195.513 199.623 195.513 199.498C195.513 199.372 195.615 199.272 195.74 199.272H198.463C198.588 199.272 198.69 199.372 198.69 199.498C198.69 199.623 198.588 199.725 198.463 199.725ZM203.907 199.725H201.185C201.059 199.725 200.958 199.623 200.958 199.498C200.958 199.372 201.059 199.272 201.185 199.272H203.907C204.032 199.272 204.134 199.372 204.134 199.498C204.134 199.623 204.032 199.725 203.907 199.725ZM209.352 199.725H206.629C206.504 199.725 206.403 199.623 206.403 199.498C206.403 199.372 206.504 199.272 206.629 199.272H209.352C209.639 199.272 209.928 199.246 210.21 199.195C210.333 199.172 210.45 199.255 210.473 199.378C210.495 199.501 210.413 199.619 210.29 199.642C209.982 199.697 209.667 199.725 209.352 199.725Z" fill="black"/>
<path d="M218.041 164.738H192.733C190.477 164.738 188.648 162.909 188.648 160.654V150.648C188.648 148.392 190.477 146.564 192.733 146.564H218.041C220.296 146.564 222.125 148.392 222.125 150.648V160.654C222.125 162.909 220.296 164.738 218.041 164.738Z" fill="white"/>
<path d="M192.733 146.79C190.606 146.79 188.875 148.521 188.875 150.648V160.654C188.875 162.781 190.606 164.511 192.733 164.511H218.041C220.168 164.511 221.898 162.781 221.898 160.654V150.648C221.898 148.521 220.168 146.79 218.041 146.79H192.733ZM218.041 164.965H192.733C190.356 164.965 188.422 163.031 188.422 160.654V150.648C188.422 148.27 190.356 146.337 192.733 146.337H218.041C220.418 146.337 222.351 148.27 222.351 150.648V160.654C222.351 163.031 220.418 164.965 218.041 164.965Z" fill="black"/>
<path d="M199.58 155.653C199.58 157.66 197.949 159.288 195.936 159.288C193.924 159.288 192.293 157.66 192.293 155.653C192.293 153.645 193.924 152.018 195.936 152.018C197.949 152.018 199.58 153.645 199.58 155.653Z" fill="black"/>
<path d="M152.79 172.02C152.739 172.02 152.689 172.005 152.647 171.97C152.549 171.892 152.534 171.749 152.613 171.651L161.628 160.499C161.707 160.402 161.849 160.385 161.948 160.465C162.045 160.544 162.06 160.687 161.981 160.784L152.965 171.937C152.921 171.992 152.855 172.02 152.79 172.02Z" fill="black"/>
<path d="M163.442 158.843C163.391 158.843 163.341 158.827 163.299 158.793C163.202 158.714 163.187 158.571 163.266 158.473L174.056 145.126C174.135 145.028 174.277 145.013 174.376 145.092C174.473 145.171 174.488 145.314 174.408 145.411L163.619 158.759C163.573 158.815 163.508 158.843 163.442 158.843Z" fill="black"/>
<path d="M175.855 143.488C175.804 143.488 175.754 143.472 175.712 143.438C175.614 143.359 175.6 143.216 175.679 143.119L178.997 139.012C179.077 138.916 179.219 138.9 179.317 138.979C179.415 139.058 179.429 139.2 179.351 139.298L176.032 143.404C175.986 143.459 175.921 143.488 175.855 143.488Z" fill="black"/>
<path d="M117.036 170.885C116.985 170.885 116.935 170.869 116.893 170.834C116.796 170.756 116.781 170.613 116.86 170.515L123.166 162.714C123.245 162.617 123.388 162.601 123.485 162.68C123.583 162.759 123.597 162.902 123.518 163L117.213 170.801C117.167 170.857 117.102 170.885 117.036 170.885Z" fill="black"/>
<path d="M124.577 161.556C124.527 161.556 124.476 161.54 124.434 161.505C124.338 161.427 124.322 161.284 124.401 161.186L131.798 152.036C131.877 151.939 132.02 151.923 132.118 152.002C132.214 152.081 132.23 152.224 132.15 152.322L124.754 161.472C124.709 161.528 124.643 161.556 124.577 161.556Z" fill="black"/>
<path d="M134.341 149.478C134.291 149.478 134.24 149.462 134.198 149.427C134.102 149.349 134.086 149.206 134.165 149.108L141.964 139.461C142.043 139.364 142.186 139.347 142.283 139.427C142.381 139.506 142.396 139.649 142.317 139.746L134.518 149.394C134.473 149.45 134.407 149.478 134.341 149.478Z" fill="black"/>
<path d="M146.885 193.473C146.835 193.473 146.785 193.456 146.743 193.422C146.645 193.344 146.63 193.201 146.709 193.104L158.05 179.075C158.128 178.977 158.271 178.961 158.369 179.041C158.466 179.12 158.482 179.263 158.402 179.36L147.062 193.388C147.017 193.444 146.952 193.473 146.885 193.473Z" fill="black"/>
<path d="M159.433 177.952C159.382 177.952 159.332 177.936 159.29 177.902C159.192 177.823 159.178 177.681 159.256 177.583L168.946 165.596C169.025 165.499 169.167 165.483 169.264 165.562C169.362 165.641 169.377 165.784 169.298 165.881L159.608 177.868C159.564 177.923 159.498 177.952 159.433 177.952Z" fill="black"/>
<path d="M145.754 49.5655C150.893 54.4192 152.97 59.8271 152.518 69.7023C154.211 66.5343 155.031 64.0872 155.066 61.3313L157.904 63.7576C158.504 61.1746 158.636 57.9352 156.864 55.5131L160.505 58.1787C159.406 53.375 158.746 44.6902 149.229 46.5576L145.754 49.5655Z" fill="white"/>
<path d="M146.092 49.5736C151.12 54.4076 153.036 59.8526 152.782 68.6992C154.206 65.8586 154.81 63.6706 154.838 61.3283C154.839 61.2404 154.891 61.1609 154.971 61.1245C155.052 61.0884 155.146 61.1014 155.213 61.1588L157.764 63.3395C158.243 61.0538 158.391 57.9851 156.681 55.6471C156.614 55.5567 156.624 55.4318 156.703 55.3527C156.782 55.2738 156.907 55.264 156.997 55.33L160.155 57.6412C160.089 57.3305 160.024 57.0078 159.956 56.6739C158.969 51.8195 157.618 45.176 149.331 46.7689L146.092 49.5736ZM152.518 69.9292C152.498 69.9292 152.478 69.9266 152.458 69.9211C152.356 69.8931 152.286 69.7978 152.291 69.6919C152.727 60.1608 150.914 54.7508 145.599 49.7304C145.551 49.6865 145.526 49.6246 145.528 49.5607C145.529 49.4965 145.558 49.436 145.606 49.3941L149.081 46.3862C149.11 46.3603 149.146 46.3429 149.185 46.335C157.969 44.6123 159.432 51.8162 160.4 56.5836C160.511 57.1312 160.617 57.6483 160.727 58.1282C160.747 58.2203 160.709 58.316 160.63 58.3681C160.551 58.4201 160.447 58.4177 160.371 58.3616L157.654 56.3731C158.883 58.8085 158.616 61.6968 158.125 63.8089C158.106 63.886 158.05 63.9483 157.975 63.9731C157.9 63.9974 157.817 63.9815 157.757 63.9299L155.278 61.8117C155.165 64.2937 154.406 66.6524 152.718 69.8094C152.678 69.8845 152.599 69.9292 152.518 69.9292Z" fill="black"/>
<path d="M127.611 43.4162C120.794 45.3069 116.421 49.1167 112.188 58.0545C112.177 54.4643 112.601 51.9189 113.863 49.4674L110.217 50.2865C110.898 47.7235 112.301 44.7992 115.003 43.4863L110.535 44.1417C113.76 40.4098 118.417 33.0429 125.952 39.1359L127.611 43.4162Z" fill="white"/>
<path d="M113.863 49.2406C113.932 49.2406 113.999 49.2725 114.043 49.3288C114.097 49.3983 114.105 49.493 114.065 49.5713C112.993 51.6549 112.499 53.8701 112.425 57.0445C116.35 49.1069 120.599 45.1906 127.31 43.2656L125.762 39.2745C119.186 33.9972 114.876 39.2393 111.726 43.0689C111.51 43.3321 111.301 43.5866 111.097 43.8301L114.97 43.2618C115.08 43.2444 115.187 43.3123 115.22 43.4193C115.253 43.5263 115.204 43.6413 115.103 43.6903C112.494 44.9577 111.185 47.7385 110.537 49.9821L113.814 49.2461C113.83 49.2423 113.847 49.2406 113.863 49.2406ZM112.188 58.2814C112.171 58.2814 112.155 58.2797 112.138 58.2759C112.035 58.2529 111.962 58.1612 111.961 58.0553C111.95 54.4782 112.385 52.0389 113.449 49.7928L110.266 50.5078C110.19 50.5258 110.108 50.5009 110.054 50.4438C109.998 50.3866 109.976 50.3049 109.997 50.2282C110.554 48.1328 111.674 45.4564 113.9 43.8775L110.568 44.3662C110.473 44.3793 110.382 44.3338 110.336 44.2511C110.29 44.1679 110.301 44.0651 110.363 43.9934C110.685 43.6207 111.021 43.2126 111.376 42.7806C114.468 39.02 119.141 33.3359 126.094 38.9595C126.125 38.9843 126.149 39.0169 126.163 39.0538L127.823 43.3343C127.846 43.3941 127.843 43.4608 127.814 43.5179C127.786 43.5753 127.733 43.6176 127.671 43.6349C120.62 45.5907 116.48 49.525 112.392 58.1516C112.354 58.2323 112.274 58.2814 112.188 58.2814Z" fill="black"/>
<path d="M151.186 52.331C149.745 60.5898 141.864 66.1191 133.586 64.681C125.307 63.243 119.764 55.3821 121.205 47.1233C122.648 38.8645 130.527 33.3352 138.806 34.7732C147.084 36.2113 152.627 44.0721 151.186 52.331Z" fill="black"/>
<path d="M151.459 51.921C150.06 59.9347 142.414 65.2998 134.381 63.9045C126.348 62.5091 120.97 54.8816 122.369 46.868C123.768 38.8543 131.413 33.4893 139.446 34.8846C147.48 36.2799 152.857 43.9074 151.459 51.921Z" fill="white"/>
<path d="M136.907 34.8916C129.975 34.8916 123.822 39.867 122.592 46.907C121.926 50.723 122.789 54.5693 125.023 57.7373C127.257 60.9056 130.595 63.0164 134.42 63.6808C135.26 63.8269 136.097 63.8973 136.921 63.8973C143.853 63.898 150.007 58.9222 151.235 51.882C151.901 48.0662 151.038 44.2197 148.804 41.0517C146.57 37.8834 143.233 35.7725 139.408 35.108C138.568 34.9623 137.731 34.8916 136.907 34.8916ZM136.921 64.351C136.071 64.351 135.209 64.2784 134.342 64.128C130.398 63.4427 126.957 61.266 124.653 57.9987C122.349 54.7314 121.458 50.7645 122.146 46.8291C123.564 38.7054 131.341 33.2473 139.485 34.6609C143.43 35.3461 146.871 37.523 149.175 40.7903C151.479 44.0576 152.369 48.0246 151.682 51.9599C150.415 59.2197 144.069 64.351 136.921 64.351Z" fill="black"/>
<path d="M149.121 51.5148C147.947 58.2399 141.53 62.7422 134.788 61.5713C128.048 60.4003 123.534 53.9993 124.708 47.2742C125.882 40.5492 132.298 36.0467 139.039 37.2177C145.781 38.3887 150.294 44.7898 149.121 51.5148Z" fill="white"/>
<path d="M146.024 58.0001C145.97 58.0001 145.914 57.9801 145.87 57.9398C145.779 57.8546 145.773 57.711 145.859 57.6191C146.648 56.7662 147.308 55.808 147.821 54.7713C147.877 54.6591 148.012 54.6129 148.124 54.6685C148.238 54.7241 148.284 54.8601 148.227 54.9725C147.696 56.0481 147.01 57.0424 146.191 57.9275C146.147 57.9757 146.086 58.0001 146.024 58.0001Z" fill="black"/>
<path d="M148.828 46.2186C148.729 46.2186 148.639 46.1538 148.61 46.0544C147.312 41.5458 143.63 38.2455 139.001 37.4413C135.197 36.781 131.263 37.9818 128.476 40.6545C128.386 40.741 128.242 40.738 128.156 40.6478C128.068 40.5575 128.071 40.4137 128.162 40.3271C131.053 37.5549 135.134 36.3092 139.078 36.9942C143.808 37.8159 147.721 41.3229 149.046 45.929C149.081 46.0493 149.011 46.1751 148.89 46.2096C148.87 46.2156 148.848 46.2186 148.828 46.2186Z" fill="black"/>
<path d="M134.789 61.7982C134.776 61.7982 134.763 61.7971 134.75 61.7949C131.43 61.2182 128.534 59.3861 126.595 56.6363C124.655 53.8863 123.906 50.5475 124.485 47.2352C124.855 45.1115 125.769 43.1107 127.126 41.4494C127.205 41.3526 127.348 41.3379 127.444 41.4173C127.542 41.4966 127.556 41.6394 127.477 41.7365C126.168 43.3376 125.289 45.2659 124.932 47.3132C124.374 50.5057 125.096 53.7241 126.965 56.3749C128.834 59.0256 131.627 60.7917 134.827 61.3478C134.951 61.3693 135.034 61.4867 135.012 61.6101C134.993 61.7205 134.897 61.7982 134.789 61.7982Z" fill="black"/>
<path d="M134.294 57.7973L134.643 55.7955C133.239 55.4864 131.932 54.8687 131.211 54.2657L132.275 51.9103C133.077 52.5491 134.246 53.208 135.619 53.4465C136.823 53.6557 137.727 53.3352 137.875 52.4924C138.015 51.6916 137.427 51.0685 135.956 50.2702C133.828 49.1191 132.47 47.7976 132.827 45.7536C133.151 43.8993 134.714 42.6728 137.051 42.6229L137.4 40.6211L139.471 40.9807L139.147 42.835C140.551 43.144 141.451 43.6042 142.088 44.0624L141.06 46.3371C140.551 46.0099 139.664 45.3565 138.144 45.0923C136.771 44.8538 136.224 45.3668 136.122 45.9567C136 46.6521 136.662 47.223 138.34 48.2092C140.699 49.5309 141.51 50.866 141.179 52.7624C140.852 54.6378 139.242 56.0081 136.739 56.0076L136.364 58.1569L134.294 57.7973Z" fill="black"/>
<path d="M84.5856 205.499C84.5856 205.499 86.1083 210.155 87.6311 211.576C89.1537 212.996 95.2092 215.791 95.2937 218.828C95.3919 222.356 93.3377 223.008 87.8362 221.734C83.862 220.814 80.5817 218.389 79.4097 217.007C78.3741 215.783 78.9525 214.744 79.2054 213.311C79.5156 211.554 79.5753 209.761 79.5753 207.978V205.058L84.5856 205.499Z" fill="white"/>
<path d="M79.8023 205.306V207.978C79.8023 209.588 79.7579 211.486 79.4288 213.351C79.3766 213.646 79.3123 213.921 79.2496 214.186C79.0058 215.222 78.8297 215.97 79.5827 216.86C80.6956 218.173 83.9341 220.599 87.8874 221.513C91.3001 222.304 93.2534 222.304 94.22 221.513C94.8348 221.011 95.1039 220.16 95.0669 218.834C95.0091 216.754 91.8723 214.718 89.582 213.232C88.6852 212.65 87.911 212.147 87.4762 211.742C86.0624 210.422 84.6919 206.523 84.4174 205.713L79.8023 205.306ZM91.9749 222.562C90.8997 222.562 89.5291 222.359 87.7851 221.955C83.7249 221.016 80.387 218.511 79.2367 217.153C78.3357 216.09 78.5649 215.114 78.808 214.082C78.8691 213.823 78.9323 213.555 78.9822 213.272C79.305 211.442 79.3486 209.569 79.3486 207.978V205.058C79.3486 204.996 79.3754 204.935 79.4221 204.892C79.4693 204.849 79.5327 204.827 79.5954 204.833L84.6056 205.274C84.6959 205.281 84.773 205.343 84.8012 205.429C84.8162 205.476 86.3231 210.045 87.786 211.41C88.1914 211.789 88.9502 212.281 89.829 212.852C92.2037 214.392 95.456 216.503 95.5207 218.822C95.5617 220.298 95.2395 221.266 94.5072 221.865C93.9379 222.33 93.1258 222.562 91.9749 222.562Z" fill="black"/>
<path d="M95.0778 220.516C95.0722 220.516 95.0667 220.516 95.0611 220.516L93.1052 220.374C88.0451 220.009 83.3126 217.836 79.779 214.254C79.3043 213.774 79.0444 213.472 79.0336 213.459C78.9518 213.364 78.9624 213.222 79.0575 213.139C79.1518 213.058 79.2952 213.068 79.3773 213.164C79.3798 213.166 79.6393 213.466 80.1021 213.936C83.5583 217.438 88.1878 219.564 93.1379 219.922L95.094 220.064C95.2189 220.072 95.3128 220.181 95.3037 220.307C95.2951 220.426 95.1956 220.516 95.0778 220.516Z" fill="black"/>
<path d="M83.2716 213.03C83.1626 213.03 83.0667 212.951 83.0481 212.84C83.0275 212.717 83.111 212.6 83.2346 212.579C83.2601 212.575 85.7921 212.14 86.7347 210.914C86.8112 210.814 86.9534 210.796 87.0529 210.872C87.1521 210.949 87.1709 211.091 87.0945 211.19C86.0427 212.559 83.4203 213.009 83.309 213.027C83.2964 213.029 83.284 213.03 83.2716 213.03Z" fill="black"/>
<path d="M85.5978 214.606C85.4928 214.606 85.3986 214.532 85.376 214.425C85.3503 214.303 85.4288 214.183 85.5513 214.157C85.5755 214.152 87.9645 213.637 88.665 212.454C88.7289 212.347 88.8679 212.311 88.9759 212.375C89.0835 212.438 89.1192 212.577 89.0553 212.685C88.253 214.04 85.7506 214.579 85.6445 214.601C85.629 214.604 85.6133 214.606 85.5978 214.606Z" fill="black"/>
<path d="M88.0995 216.095C88.0073 216.095 87.9206 216.038 87.8868 215.947C87.8431 215.83 87.9032 215.699 88.0206 215.655C88.0401 215.648 89.9903 214.912 90.5575 213.726C90.6115 213.613 90.7467 213.566 90.8601 213.619C90.9731 213.674 91.0209 213.81 90.9669 213.923C90.32 215.274 88.2653 216.049 88.1784 216.08C88.1525 216.091 88.1256 216.095 88.0995 216.095Z" fill="black"/>
<path d="M72.8459 194.049C72.6604 194.049 70.0131 193.787 68.4826 193.635C67.8881 193.575 67.3579 194.005 67.2936 194.598L66.9929 197.365C66.8865 198.342 66.6897 199.308 66.4131 200.252C65.911 201.966 65.1709 204.919 65.5761 206.267C66.0097 207.709 67.3646 209.716 68.2593 210.859C68.6721 211.387 69.3692 211.596 70.005 211.384C71.1422 211.002 72.9585 210.271 74.0247 209.207C75.6621 207.574 73.8938 204.438 73.8938 204.438L72.8459 194.049Z" fill="white"/>
<path d="M68.3745 193.856C67.9416 193.856 67.5667 194.184 67.5191 194.622L67.2184 197.389C67.1128 198.361 66.9152 199.346 66.6309 200.316C66.1505 201.956 65.4025 204.902 65.7935 206.202C66.1777 207.48 67.3986 209.391 68.4379 210.719C68.7904 211.169 69.3909 211.351 69.933 211.168C70.9477 210.828 72.8076 210.102 73.8645 209.047C75.3624 207.552 73.7129 204.579 73.6962 204.549C73.6809 204.522 73.6711 204.492 73.668 204.461L72.6394 194.263C72.0009 194.212 70.0828 194.023 68.46 193.86C68.4312 193.857 68.4026 193.856 68.3745 193.856ZM69.505 211.691C68.9594 211.691 68.4289 211.444 68.0807 210.999C67.0931 209.738 65.7878 207.759 65.3589 206.333C64.9556 204.991 65.5912 202.251 66.1954 200.189C66.4723 199.244 66.6647 198.285 66.7675 197.34L67.0681 194.574C67.1458 193.86 67.7902 193.338 68.5052 193.409C71.0893 193.667 72.7118 193.822 72.8458 193.823C72.962 193.823 73.0599 193.912 73.0716 194.027L74.1148 204.369C74.3349 204.776 75.8371 207.72 74.1849 209.368C73.1186 210.432 71.3624 211.168 70.077 211.598C69.8894 211.661 69.6962 211.691 69.505 211.691Z" fill="black"/>
<path d="M70.7202 211.234C70.6493 211.234 70.5795 211.202 70.5352 211.14C67.2963 206.594 67.5159 205.404 67.9964 202.797C68.0949 202.261 68.2068 201.655 68.2983 200.946C68.5422 199.06 69.2738 193.874 69.2811 193.822C69.2983 193.698 69.4138 193.609 69.5374 193.629C69.6614 193.646 69.7479 193.762 69.7304 193.885C69.723 193.937 68.992 199.121 68.7484 201.004C68.6552 201.724 68.5422 202.337 68.4425 202.879C67.9859 205.356 67.7774 206.487 70.9047 210.877C70.9774 210.979 70.9537 211.12 70.8515 211.192C70.8117 211.221 70.7656 211.234 70.7202 211.234Z" fill="black"/>
<path d="M70.2808 203.311C70.17 203.311 70.0732 203.229 70.0566 203.116C70.0384 202.992 70.1242 202.877 70.248 202.859L73.2324 202.421C73.3596 202.402 73.4718 202.489 73.4898 202.613C73.508 202.737 73.4223 202.852 73.2984 202.87L70.314 203.308C70.3027 203.31 70.2916 203.311 70.2808 203.311Z" fill="black"/>
<path d="M70.5882 205.456C70.4774 205.456 70.3806 205.375 70.3639 205.262C70.3458 205.137 70.4315 205.022 70.5554 205.005L73.5397 204.567C73.6675 204.546 73.779 204.635 73.7972 204.758C73.8154 204.882 73.7296 204.998 73.6057 205.015L70.6214 205.453C70.6101 205.455 70.5991 205.456 70.5882 205.456Z" fill="black"/>
<path d="M73.8327 206.444C75.5727 207.642 79.2552 209.183 85.4443 207.33L82.7803 133.967L71.1226 131.745C71.1226 131.745 69.4246 158.065 71.0776 173.73C72.5864 188.029 72.6481 200.216 72.6226 204.088C72.6165 205.023 73.0608 205.913 73.8327 206.444Z" fill="black"/>
<path d="M73.883 128.446L93.8676 121.818L100.575 159.272C99.8833 168.497 89.2851 192.917 85.2992 195.65C79.0119 199.962 73.883 128.446 73.883 128.446Z" fill="black"/>
<path d="M85.3348 196.064C85.3329 196.064 85.3308 196.064 85.3289 196.064C85.2038 196.061 85.1047 195.957 85.1077 195.832L86.4 144.619C86.4031 144.496 86.5041 144.398 86.6269 144.398C86.6287 144.398 86.6306 144.398 86.6326 144.398C86.7578 144.401 86.8569 144.505 86.8537 144.63L85.5615 195.843C85.5584 195.967 85.4574 196.064 85.3348 196.064Z" fill="white"/>
<path d="M113.357 84.1137C113.198 84.0831 113.085 83.9451 113.088 83.7847C113.107 82.9506 113.28 80.4494 114.688 79.3012C116.39 77.9116 117.834 74.7207 118.867 75.0295C119.898 75.3383 117.628 78.1174 117.886 78.4262C118.144 78.735 119.949 76.9852 120.517 75.9558C121.084 74.9265 121.772 72.912 122.595 72.9806C123.726 73.0746 123.974 74.7721 122.477 78.1174C121.053 81.3008 116.267 82.154 115.896 84.2691C115.864 84.449 115.688 84.5661 115.509 84.5312L113.357 84.1137Z" fill="white"/>
<path d="M118.719 75.2351C118.267 75.2351 117.561 76.1887 116.876 77.1125C116.265 77.9375 115.571 78.8724 114.831 79.4767C113.487 80.5734 113.331 83.0551 113.315 83.7895C113.314 83.8394 113.349 83.8812 113.4 83.891L115.551 84.3086C115.589 84.3152 115.618 84.3012 115.632 84.292C115.647 84.2815 115.666 84.2623 115.672 84.2301C115.866 83.1249 117.068 82.3867 118.46 81.5318C119.909 80.6417 121.552 79.6325 122.27 78.0248C123.629 74.9859 123.314 73.8753 123.115 73.539C122.995 73.3354 122.818 73.2266 122.577 73.2065C122.568 73.206 122.561 73.2056 122.553 73.2056C122.085 73.2056 121.543 74.3563 121.144 75.2002C120.995 75.517 120.853 75.8162 120.716 76.0653C120.238 76.9323 118.639 78.6271 118.018 78.687C117.849 78.7053 117.753 78.6217 117.712 78.5716C117.523 78.3453 117.7 78.0058 118.154 77.1907C118.479 76.6093 119.022 75.6363 118.892 75.3191C118.883 75.2945 118.867 75.2667 118.801 75.2469C118.774 75.2389 118.746 75.2351 118.719 75.2351ZM115.573 84.7644C115.538 84.7644 115.502 84.761 115.465 84.7539L113.313 84.3363C113.046 84.2847 112.856 84.0507 112.862 83.7799C112.884 82.7755 113.09 80.3116 114.544 79.1255C115.241 78.5567 115.915 77.646 116.511 76.8422C117.445 75.583 118.183 74.587 118.931 74.8122C119.114 74.867 119.246 74.9833 119.313 75.1486C119.509 75.6302 119.121 76.3903 118.551 77.4118C118.415 77.6533 118.247 77.9573 118.156 78.1608C118.671 77.8568 119.852 76.6911 120.318 75.8464C120.449 75.6097 120.587 75.3166 120.733 75.0065C121.271 73.8672 121.82 72.6839 122.615 72.7545C123.002 72.7867 123.311 72.978 123.506 73.3081C124.009 74.1597 123.717 75.9006 122.685 78.2099C121.908 79.9458 120.202 80.9939 118.697 81.9184C117.399 82.716 116.277 83.4047 116.119 84.3083C116.093 84.4542 116.012 84.5811 115.889 84.6657C115.795 84.7306 115.685 84.7644 115.573 84.7644Z" fill="black"/>
<path d="M115.818 83.8095L113.422 83.3316C112.894 83.2262 112.376 83.553 112.247 84.0749C111.493 87.135 108.992 96.7172 107.078 97.495C104.798 98.4216 102.94 96.0629 99.0556 94.1251C96.9832 93.0916 93.817 92.7052 91.3141 92.5696C89.1255 92.4514 86.9323 92.64 84.7946 93.1215L77.9722 94.6587C77.1425 94.8009 74.3534 95.3284 71.3125 96.9992C71.5034 97.3125 68.3246 98.4981 68.4913 98.8157C70.8805 103.366 71.0902 109.986 70.596 115.106C72.9543 118.536 76.7875 119.929 75.2872 122.246C72.263 126.915 71.3417 129.786 71.2482 133.972C75.1588 131.106 81.0823 127.504 88.9382 125.178C93.3282 123.877 97.335 123.266 100.686 123.002C100.068 121.958 99.1771 120.227 98.6487 117.951C97.8682 114.586 98.5102 112.752 98.0321 108.879C97.8558 107.449 97.4731 105.305 96.5222 102.718C100.918 106.756 106.698 108.538 111.047 106.762C117.428 104.154 121.283 93.6481 115.818 83.8095Z" fill="white"/>
<path d="M70.8296 115.045C71.6732 116.252 72.7008 117.202 73.6092 118.042C75.2414 119.551 76.5305 120.743 75.4778 122.369C72.6498 126.735 71.6436 129.514 71.4889 133.517C76.8124 129.679 82.6594 126.801 88.8737 124.96C92.5859 123.861 96.4317 123.136 100.31 122.806C99.4473 121.282 98.8148 119.668 98.4279 118.002C97.9857 116.096 97.9937 114.652 98.0023 113.122C98.0092 111.883 98.0163 110.601 97.8072 108.906C97.5564 106.874 97.0524 104.818 96.3093 102.796C96.2733 102.698 96.3091 102.588 96.396 102.53C96.4833 102.471 96.5984 102.48 96.6758 102.551C101.11 106.624 106.85 108.231 110.961 106.551C113.731 105.419 116.023 102.766 117.252 99.2722C118.939 94.4689 118.362 88.9124 115.671 84.0112L113.377 83.554C112.966 83.4721 112.567 83.7246 112.467 84.1292C111.527 87.9454 109.126 96.9074 107.164 97.7052C105.518 98.3733 104.117 97.4703 102.177 96.2208C101.256 95.6277 100.212 94.9556 98.9543 94.3281C96.8769 93.2921 93.6462 92.9232 91.3018 92.7963C89.1429 92.6784 86.972 92.8637 84.8446 93.3428L78.0219 94.8801C76.739 95.1001 74.2187 95.6818 71.5255 97.1412C71.4309 97.3804 71.0164 97.6064 70.0015 98.1142C69.5688 98.3309 68.9375 98.6468 68.7436 98.8089C71.4952 104.153 71.1296 111.871 70.8296 115.045ZM71.2481 134.199C71.2123 134.199 71.1763 134.191 71.1434 134.174C71.0667 134.133 71.0195 134.053 71.0213 133.967C71.1185 129.614 72.1088 126.736 75.097 122.122C75.9045 120.875 75.0365 119.98 73.3012 118.375C72.3585 117.503 71.29 116.516 70.409 115.235C70.3788 115.19 70.3651 115.137 70.3701 115.084C70.6693 111.985 71.0654 104.207 68.2906 98.9213C68.2547 98.853 68.2484 98.7732 68.273 98.6971C68.3522 98.4516 68.7542 98.231 69.7986 97.7085C70.253 97.481 70.9255 97.1445 71.0857 96.9892C71.0863 96.973 71.0888 96.9566 71.0932 96.9406C71.1093 96.8809 71.1488 96.8301 71.2032 96.8004C73.9935 95.2671 76.6179 94.6603 77.9338 94.4353L84.7449 92.9002C86.9129 92.4117 89.128 92.224 91.3262 92.343C93.7135 92.4724 97.0098 92.8514 99.1568 93.9222C100.437 94.5609 101.492 95.2401 102.423 95.8394C104.316 97.0587 105.566 97.8645 106.992 97.2848C108.438 96.6974 110.541 90.0479 112.027 84.0206C112.185 83.3798 112.816 82.9793 113.467 83.1092L115.863 83.5871C115.928 83.6 115.984 83.6411 116.016 83.6993C118.814 88.736 119.421 94.4669 117.679 99.4226C116.409 103.04 114.023 105.79 111.133 106.972C106.998 108.662 101.538 107.282 97.0242 103.463C97.6222 105.251 98.0365 107.059 98.2574 108.851C98.4703 110.575 98.463 111.871 98.4561 113.125C98.4473 114.692 98.4397 116.046 98.8697 117.899C99.2728 119.635 99.9495 121.313 100.881 122.887C100.921 122.954 100.924 123.037 100.888 123.107C100.852 123.176 100.782 123.222 100.704 123.228C96.7355 123.542 92.7988 124.271 89.0027 125.394C82.6918 127.264 76.7637 130.212 71.3822 134.155C71.3425 134.184 71.2955 134.199 71.2481 134.199Z" fill="black"/>
<path d="M88.4592 123.515C88.4256 123.515 88.3915 123.508 88.3593 123.492C88.247 123.437 88.2007 123.3 88.2559 123.188L94.111 111.282C94.1664 111.17 94.3031 111.124 94.4147 111.178C94.527 111.234 94.5733 111.369 94.5182 111.482L88.6631 123.389C88.6236 123.469 88.543 123.515 88.4592 123.515Z" fill="black"/>
<path d="M93.5825 119.584C93.5536 119.584 93.5242 119.578 93.4958 119.567C93.3801 119.518 93.3252 119.386 93.373 119.271L94.9774 115.395C95.0252 115.279 95.1586 115.224 95.2738 115.273C95.3895 115.32 95.4445 115.453 95.3965 115.569L93.7921 119.444C93.7561 119.532 93.6715 119.584 93.5825 119.584Z" fill="black"/>
<path d="M71.3124 96.9992C71.3124 96.9992 48.0586 107.852 54.6429 120.987C59.7903 131.256 72.7925 118.912 72.7925 118.912L69.8685 113.845C69.8685 113.845 64.302 118.115 63.7755 115.913C63.2585 113.75 65.8562 111.08 73.1424 112.466L74.7471 114.305C74.7471 114.305 77.261 108.394 71.8476 97.9495L71.3124 96.9992Z" fill="white"/>
<path d="M70.5959 115.106L73.8329 111.646C76.7546 111.785 78.9626 112.44 80.6826 113.448C81.1499 113.722 81.0385 114.424 80.5064 114.526C79.5351 114.715 78.1083 115.04 76.3702 115.578C73.0178 116.616 72.2915 117.335 72.2915 117.335L70.5959 115.106Z" fill="white"/>
<path d="M70.8923 115.121L72.3343 117.017C72.7317 116.743 73.8014 116.136 76.303 115.361C78.0963 114.806 79.5553 114.48 80.4631 114.304C80.6865 114.261 80.7352 114.075 80.7447 114.019C80.7651 113.9 80.7292 113.739 80.5677 113.644C78.7787 112.595 76.6054 112.017 73.9266 111.877L70.8923 115.121ZM72.2915 117.562C72.2863 117.562 72.281 117.562 72.2756 117.561C72.2105 117.557 72.1505 117.525 72.111 117.473L70.4153 115.243C70.3484 115.155 70.3546 115.031 70.4301 114.951L73.6671 111.491C73.7123 111.442 73.7763 111.415 73.8435 111.42C76.6455 111.552 78.9201 112.152 80.7972 113.253C81.0947 113.427 81.2496 113.757 81.192 114.096C81.135 114.428 80.8827 114.685 80.5496 114.749C79.6525 114.923 78.2112 115.246 76.4373 115.795C73.2278 116.789 72.4582 117.49 72.4513 117.496C72.4085 117.538 72.3512 117.562 72.2915 117.562Z" fill="black"/>
<path d="M85.1193 164.076L80.014 167.73L75.9962 151.971L74.8146 134.53L77.0542 136.023L85.1193 164.076Z" fill="white"/>
<path d="M76.2211 151.935L80.1519 167.352L84.857 163.984L76.8591 136.165L75.0719 134.974L76.2211 151.935ZM80.0141 167.957C79.988 167.957 79.9616 167.952 79.9363 167.942C79.8658 167.917 79.8127 167.858 79.7943 167.786L75.7765 152.028C75.7729 152.014 75.7709 152 75.7698 151.987L74.5881 134.545C74.5823 134.459 74.6259 134.377 74.7009 134.334C74.7753 134.291 74.8681 134.293 74.9403 134.341L77.1799 135.834C77.2246 135.864 77.2572 135.908 77.272 135.96L85.3373 164.013C85.3639 164.106 85.3293 164.204 85.2513 164.261L80.1461 167.915C80.1071 167.942 80.0609 167.957 80.0141 167.957Z" fill="black"/>
<path d="M48.2269 169.898L55.1506 135.104L74.8145 134.53L80.014 167.73L48.2269 169.898Z" fill="white"/>
<path d="M55.3376 135.325L48.5071 169.651L79.7515 167.52L74.6213 134.763L55.3376 135.325ZM48.2269 170.125C48.1619 170.125 48.0997 170.097 48.0565 170.048C48.0097 169.994 47.9904 169.923 48.0044 169.853L54.928 135.06C54.9486 134.956 55.0382 134.88 55.1438 134.877L74.8079 134.303C74.918 134.301 75.0208 134.382 75.0386 134.495L80.2383 167.695C80.248 167.757 80.231 167.821 80.1913 167.871C80.1516 167.921 80.0929 167.952 80.0296 167.956L48.2424 170.125C48.237 170.125 48.2319 170.125 48.2269 170.125Z" fill="black"/>
<path d="M71.3747 136.776C71.2612 136.776 71.1633 136.692 71.1495 136.577L69.3916 121.781C69.3767 121.656 69.4658 121.544 69.59 121.528C69.7166 121.514 69.8273 121.603 69.8422 121.727L71.6002 136.523C71.615 136.648 71.5259 136.76 71.4016 136.775C71.3925 136.776 71.3835 136.776 71.3747 136.776Z" fill="black"/>
<path d="M59.0328 136.597C59.0252 136.597 59.0177 136.596 59.0102 136.594C58.8876 136.582 58.7973 136.478 58.8067 136.356C58.8552 135.726 64.2334 118.414 66.054 115.26C66.4293 114.611 67.0958 114.722 67.4158 114.774C67.4704 114.782 67.5446 114.8 67.5678 114.794C67.6899 114.766 67.8057 114.842 67.8341 114.964C67.8625 115.087 67.7805 115.209 67.6584 115.238C67.5675 115.258 67.4681 115.242 67.3421 115.221C66.9712 115.161 66.6486 115.138 66.447 115.488C64.6588 118.586 59.3558 135.647 59.2587 136.394C59.2438 136.509 59.1457 136.597 59.0328 136.597Z" fill="black"/>
<path d="M63.3976 159.956L56.4608 162.789L58.7173 151.507L63.7585 137.269L64.6253 138.626L63.3976 159.956Z" fill="white"/>
<path d="M63.3976 159.956H63.3997H63.3976ZM58.9366 151.567L56.7659 162.419L63.1793 159.801L64.3947 138.686L63.8174 137.783L58.9366 151.567ZM56.4606 163.015C56.4088 163.015 56.3576 162.998 56.3162 162.964C56.2517 162.91 56.2218 162.826 56.2382 162.744L58.4948 151.461C58.4968 151.451 58.4997 151.441 58.5035 151.431L63.5447 137.194C63.5735 137.112 63.6465 137.054 63.7325 137.044C63.8198 137.032 63.9029 137.075 63.9496 137.148L64.8165 138.504C64.8422 138.545 64.8547 138.592 64.8518 138.639L63.6239 159.969C63.6191 160.057 63.5642 160.134 63.4833 160.167L56.5464 162.999C56.5187 163.01 56.4896 163.015 56.4606 163.015Z" fill="black"/>
<path d="M49.4122 130.703L63.7585 137.269L56.4608 162.789L34.8751 150.132C34.8751 150.132 45.7688 138.809 49.4122 130.703Z" fill="white"/>
<path d="M35.2366 150.081L56.3231 162.445L63.4866 137.394L49.5244 131.004C46.096 138.43 36.7202 148.51 35.2366 150.081ZM56.4606 163.015C56.4208 163.015 56.3812 163.005 56.3459 162.984L34.7605 150.328C34.7004 150.293 34.66 150.232 34.6506 150.163C34.641 150.094 34.6636 150.024 34.7118 149.975C34.8205 149.862 45.62 138.587 49.2051 130.61C49.23 130.555 49.2756 130.512 49.3324 130.49C49.3886 130.47 49.4515 130.472 49.5065 130.496L63.8528 137.063C63.9548 137.11 64.0075 137.224 63.9767 137.332L56.6789 162.851C56.6597 162.918 56.6102 162.973 56.545 163C56.5178 163.01 56.4892 163.015 56.4606 163.015Z" fill="black"/>
<path d="M60.6706 139.073C60.6493 139.073 60.6276 139.07 60.6059 139.064C60.4858 139.028 60.4174 138.901 60.4531 138.781L64.8167 124.095C64.8526 123.976 64.9778 123.907 65.099 123.943C65.2191 123.978 65.2875 124.104 65.2519 124.225L60.8881 138.911C60.8587 139.009 60.7684 139.073 60.6706 139.073Z" fill="black"/>
<path d="M51.8214 134.494C51.7782 134.494 51.7345 134.482 51.6958 134.456C51.5916 134.387 51.5633 134.247 51.6329 134.142C52.1209 133.409 63.6038 116.177 64.8584 114.835C65.5619 114.082 66.4356 113.755 67.1394 113.984C67.653 114.15 67.9895 114.579 68.0626 115.161C68.0783 115.284 67.9901 115.398 67.8658 115.414C67.7394 115.428 67.6281 115.342 67.6124 115.217C67.5614 114.812 67.3439 114.527 66.9996 114.415C66.5802 114.28 65.8855 114.4 65.1898 115.144C63.9605 116.46 52.1298 134.214 52.0103 134.394C51.9668 134.459 51.8947 134.494 51.8214 134.494Z" fill="black"/>
<path d="M60.6956 125.297C60.2716 125.297 59.8524 125.263 59.4395 125.191C57.2985 124.816 55.6166 123.436 54.4402 121.089C53.0611 118.338 52.873 115.474 53.8813 112.575C57.0387 103.498 71.0751 96.8596 71.2165 96.7936C71.33 96.7407 71.465 96.7898 71.518 96.9032C71.5709 97.0167 71.522 97.1519 71.4083 97.2047C71.2687 97.2699 57.4033 103.829 54.3095 112.725C53.3433 115.503 53.524 118.249 54.8457 120.886C55.9539 123.097 57.5259 124.395 59.517 124.744C59.8969 124.81 60.2853 124.841 60.6777 124.841C65.7157 124.841 71.5611 119.725 72.5052 118.868L69.8004 114.181C68.8756 114.869 65.5891 117.199 64.1827 116.699C63.8591 116.584 63.6421 116.331 63.5549 115.966C63.356 115.134 63.5808 114.292 64.1878 113.597C64.8912 112.791 66.7328 111.505 71.1547 111.945C71.2794 111.957 71.3704 112.068 71.358 112.193C71.3456 112.318 71.2315 112.407 71.1098 112.396C68.0269 112.089 65.6284 112.636 64.5296 113.895C64.0217 114.477 63.8322 115.175 63.9962 115.861C64.048 116.078 64.1554 116.208 64.3342 116.271C65.4557 116.671 68.6095 114.525 69.7306 113.665C69.7824 113.626 69.8497 113.61 69.9128 113.623C69.9769 113.635 70.0323 113.675 70.0651 113.732L72.9889 118.798C73.0413 118.889 73.0246 119.003 72.9486 119.076C72.6622 119.348 66.3268 125.296 60.6956 125.297Z" fill="black"/>
<path d="M84.3023 89.217C84.3023 89.217 83.5508 90.0421 81.9808 89.7526L84.3023 89.217Z" fill="white"/>
<path d="M82.6327 90.0414C82.4204 90.0414 82.1896 90.0217 81.9397 89.9756C81.8165 89.9528 81.735 89.8344 81.7579 89.7113C81.7804 89.5883 81.8978 89.5053 82.0221 89.5294C83.4519 89.7935 84.1282 89.0716 84.1345 89.0642C84.2189 88.9721 84.3623 88.965 84.4551 89.0494C84.5477 89.1338 84.5544 89.2771 84.47 89.3699C84.441 89.4018 83.8419 90.0414 82.6327 90.0414Z" fill="black"/>
<path d="M86.7304 77.8964C86.7304 85.2329 81.841 93.6053 74.4866 93.6053C67.1323 93.6053 59.6469 87.2841 59.6469 79.9476C59.6469 72.6109 65.8344 65.5453 73.1887 65.5453C80.543 65.5453 86.7304 70.5598 86.7304 77.8964Z" fill="black"/>
<path d="M62.7026 84.0305C62.7026 84.8722 62.0184 85.5546 61.1747 85.5546C60.3309 85.5546 59.6469 84.8722 59.6469 84.0305C59.6469 83.1887 60.3309 82.5064 61.1747 82.5064C62.0184 82.5064 62.7026 83.1887 62.7026 84.0305Z" fill="black"/>
<path d="M61.1746 86.932C61.1746 88.2107 62.2137 89.2473 63.4955 89.2473C64.7774 89.2473 65.8165 88.2107 65.8165 86.932C65.8165 85.6533 64.7774 84.6166 63.4955 84.6166C62.2137 84.6166 61.1746 85.6533 61.1746 86.932Z" fill="black"/>
<path d="M64.4374 87.3834C63.3511 88.467 63.3511 90.2239 64.4374 91.3075C65.5236 92.3911 67.2848 92.3911 68.3708 91.3075C69.4571 90.2239 69.4571 88.467 68.3708 87.3834C67.2848 86.2998 65.5236 86.2998 64.4374 87.3834Z" fill="black"/>
<path d="M67.4956 90.8919C67.4956 92.6309 68.9087 94.0406 70.6519 94.0406C72.3951 94.0406 73.8082 92.6309 73.8082 90.8919C73.8082 89.1529 72.3951 87.7431 70.6519 87.7431C68.9087 87.7431 67.4956 89.1529 67.4956 90.8919Z" fill="black"/>
<path d="M71.6735 91.2491C71.8713 93.1577 73.5825 94.5448 75.4956 94.3476C77.4088 94.1503 78.7994 92.4432 78.6016 90.5346C78.4039 88.6261 76.6927 87.2389 74.7795 87.4361C72.8663 87.6334 71.4757 89.3405 71.6735 91.2491Z" fill="black"/>
<path d="M63.9753 78.7741C63.9753 80.3389 62.7037 81.6075 61.1351 81.6075C59.5664 81.6075 58.2948 80.3389 58.2948 78.7741C58.2948 77.2093 59.5664 75.9407 61.1351 75.9407C62.7037 75.9407 63.9753 77.2093 63.9753 78.7741Z" fill="black"/>
<path d="M64.9129 77.5987C63.7082 78.8005 61.755 78.8005 60.5503 77.5987C59.3456 76.397 59.3456 74.4485 60.5503 73.2466C61.755 72.0448 63.7082 72.0448 64.9129 73.2466C66.1177 74.4485 66.1177 76.397 64.9129 77.5987Z" fill="black"/>
<path d="M62.898 81.866C62.898 82.8373 62.1087 83.6246 61.135 83.6246C60.1614 83.6246 59.3721 82.8373 59.3721 81.866C59.3721 80.8948 60.1614 80.1073 61.135 80.1073C62.1087 80.1073 62.898 80.8948 62.898 81.866Z" fill="black"/>
<path d="M87.5195 78.3247C87.5195 79.6413 86.4497 80.7086 85.1298 80.7086C83.8101 80.7086 82.7402 79.6413 82.7402 78.3247C82.7402 77.008 83.8101 75.9407 85.1298 75.9407C86.4497 75.9407 87.5195 77.008 87.5195 78.3247Z" fill="black"/>
<path d="M87.8023 75.2611C87.8023 76.6556 86.6691 77.7861 85.2713 77.7861C83.8734 77.7861 82.7402 76.6556 82.7402 75.2611C82.7402 73.8665 83.8734 72.736 85.2713 72.736C86.6691 72.736 87.8023 73.8665 87.8023 75.2611Z" fill="black"/>
<path d="M86.1876 72.2449C86.1876 73.7202 84.9886 74.9164 83.5096 74.9164C82.0305 74.9164 80.8315 73.7202 80.8315 72.2449C80.8315 70.7693 82.0305 69.5732 83.5096 69.5732C84.9886 69.5732 86.1876 70.7693 86.1876 72.2449Z" fill="black"/>
<path d="M79.0997 68.9762C79.0997 70.359 80.2233 71.48 81.6094 71.48C82.9956 71.48 84.1192 70.359 84.1192 68.9762C84.1192 67.5934 82.9956 66.4724 81.6094 66.4724C80.2233 66.4724 79.0997 67.5934 79.0997 68.9762Z" fill="black"/>
<path d="M80.1465 67.2607C80.1465 68.2081 79.3766 68.9762 78.4268 68.9762C77.4771 68.9762 76.7072 68.2081 76.7072 67.2607C76.7072 66.3133 77.4771 65.5453 78.4268 65.5453C79.3766 65.5453 80.1465 66.3133 80.1465 67.2607Z" fill="black"/>
<path d="M77.5319 66.6955C77.5319 67.892 76.5596 68.8619 75.3603 68.8619C74.1609 68.8619 73.1887 67.892 73.1887 66.6955C73.1887 65.499 74.1609 64.5291 75.3603 64.5291C76.5596 64.5291 77.5319 65.499 77.5319 66.6955Z" fill="black"/>
<path d="M74.8268 68.0073C74.8268 69.6261 73.5114 70.9384 71.8887 70.9384C70.266 70.9384 68.9506 69.6261 68.9506 68.0073C68.9506 66.3885 70.266 65.0763 71.8887 65.0763C73.5114 65.0763 74.8268 66.3885 74.8268 68.0073Z" fill="black"/>
<path d="M68.4413 65.5453C69.8908 65.5453 71.0659 66.7175 71.0659 68.1636C71.0659 69.6098 69.8908 70.7821 68.4413 70.7821C66.9916 70.7821 65.8165 69.6098 65.8165 68.1636C65.8165 66.7175 66.9916 65.5453 68.4413 65.5453Z" fill="black"/>
<path d="M65.8165 66.7253C67.3931 66.7253 68.6712 68.0003 68.6712 69.5732C68.6712 71.1461 67.3931 72.4211 65.8165 72.4211C64.2398 72.4211 62.9617 71.1461 62.9617 69.5732C62.9617 68.0003 64.2398 66.7253 65.8165 66.7253Z" fill="black"/>
<path d="M63.9753 71.8568C63.9753 72.9252 63.1071 73.7913 62.0361 73.7913C60.9651 73.7913 60.0969 72.9252 60.0969 71.8568C60.0969 70.7884 60.9651 69.9223 62.0361 69.9223C63.1071 69.9223 63.9753 70.7884 63.9753 71.8568Z" fill="black"/>
<path d="M82.619 78.1301C83.182 78.4388 83.4858 78.4987 83.9538 78.8052C84.9056 79.4287 86.0436 81.5875 87.4862 81.8038C87.7732 82.5252 87.1899 82.7254 87.0418 83.1864C87.2802 83.5225 87.8848 85.1851 88.3789 86.1786C88.5519 86.5265 88.4389 86.9521 88.1117 87.1627C87.5607 87.517 86.9184 87.8022 86.1756 88.0002C86.1756 88.0002 83.2169 94.3161 87.7148 96.5831L78.1774 95.7636L80.7408 87.4073C80.6175 87.387 79.0028 87.097 78.6067 85.8851C78.4612 85.44 78.4228 84.695 78.8052 84.462C79.1785 84.2347 79.9287 84.5099 80.5176 85.2886C80.5721 85.0662 80.6033 84.7887 80.6289 84.4707C80.6641 84.0347 80.6582 83.5445 80.4941 83.3283C84.0554 81.6005 79.9859 78.6013 82.619 78.1301Z" fill="white"/>
<path d="M78.4768 95.5615L86.7968 96.2765C83.3476 93.6264 85.9416 87.9647 85.9702 87.904C85.9986 87.8433 86.0523 87.7981 86.1171 87.7808C86.8127 87.5956 87.4423 87.3236 87.9889 86.972C88.2184 86.8242 88.2988 86.5267 88.1759 86.2796C87.9382 85.8016 87.6747 85.1704 87.4425 84.6132C87.209 84.0532 86.9673 83.4738 86.8568 83.3177C86.8154 83.2594 86.8039 83.1852 86.8258 83.1172C86.8876 82.9249 87.0048 82.7753 87.108 82.6435C87.274 82.4319 87.3899 82.2839 87.3138 82.0021C86.3765 81.7896 85.5962 80.8838 84.9041 80.0803C84.5165 79.6303 84.15 79.2051 83.8294 78.9951C83.5802 78.8317 83.3801 78.7426 83.1486 78.6395C82.9853 78.5667 82.8026 78.4854 82.5824 78.3681C82.2753 78.4329 82.0784 78.5375 81.9817 78.6872C81.8114 78.9508 81.9244 79.4006 82.0554 79.9211C82.3205 80.9768 82.6808 82.4097 80.7937 83.43C80.8725 83.6748 80.8925 84.0246 80.855 84.4888C80.8329 84.7652 80.8016 85.0828 80.7381 85.3428C80.7172 85.4278 80.6491 85.4932 80.5634 85.5109C80.4779 85.5282 80.3896 85.4956 80.3365 85.4256C79.7933 84.7069 79.1556 84.5135 78.9233 84.6559C78.6943 84.7951 78.6813 85.3826 78.8221 85.8146C79.1795 86.9075 80.7128 87.1727 80.7779 87.1836C80.8424 87.1941 80.8993 87.2323 80.9336 87.2879C80.9682 87.3435 80.9771 87.4113 80.9578 87.4738L78.4768 95.5615ZM87.715 96.81C87.7084 96.81 87.702 96.8097 87.6953 96.8091L78.158 95.9896C78.0897 95.9838 78.0276 95.9473 77.9893 95.8906C77.9511 95.8337 77.9404 95.7625 77.9606 95.6971L80.4514 87.5772C79.9163 87.4429 78.7428 87.0318 78.391 85.9555C78.226 85.4502 78.1688 84.5839 78.6874 84.2682C79.1243 84.0022 79.7989 84.222 80.3721 84.7805C80.3844 84.6697 80.3942 84.558 80.4026 84.4524C80.4615 83.7233 80.3492 83.5128 80.3136 83.4659C80.2724 83.4115 80.2577 83.3418 80.2735 83.2758C80.2891 83.2095 80.334 83.1542 80.3951 83.1245C82.1754 82.2605 81.8908 81.1275 81.6151 80.0318C81.4651 79.4344 81.3231 78.8702 81.6008 78.4408C81.7771 78.1677 82.0972 77.9929 82.579 77.9067C82.6291 77.8969 82.6827 77.9063 82.728 77.931C82.9645 78.0609 83.1519 78.1442 83.3332 78.225C83.5722 78.3316 83.7982 78.4322 84.0779 78.6157C84.4522 78.8605 84.8388 79.3093 85.248 79.7843C85.9223 80.5672 86.6869 81.4547 87.5199 81.5794C87.5997 81.5913 87.6672 81.645 87.6971 81.72C87.9363 82.322 87.6641 82.6696 87.4652 82.9233C87.4006 83.0058 87.3387 83.0846 87.2959 83.1665C87.4252 83.3976 87.6039 83.8212 87.8613 84.4387C88.0907 84.9892 88.3511 85.6131 88.5821 86.0776C88.8082 86.532 88.6586 87.0805 88.2344 87.3535C87.676 87.7126 87.0391 87.9939 86.3394 88.1905C86.0039 88.9727 83.8604 94.3863 87.8169 96.3807C87.914 96.4294 87.9627 96.5403 87.933 96.6449C87.9051 96.7433 87.8156 96.81 87.715 96.81Z" fill="black"/>
<path d="M82.9943 88.1316C82.9943 88.1316 84.4301 88.6816 86.0558 88.0369L82.9943 88.1316Z" fill="white"/>
<path d="M84.3922 88.5785C83.5426 88.5785 82.9519 88.3581 82.9134 88.3433C82.7965 88.2985 82.7382 88.1679 82.7827 88.0509C82.8272 87.9339 82.9575 87.8754 83.0753 87.9195C83.0888 87.9245 84.454 88.4279 85.9725 87.826C86.0876 87.7802 86.2208 87.8368 86.2668 87.9534C86.313 88.0697 86.256 88.2015 86.1395 88.2478C85.5061 88.4991 84.9023 88.5785 84.3922 88.5785Z" fill="black"/>
<path d="M86.6266 144.851C86.5803 144.851 86.5336 144.837 86.4933 144.808C86.392 144.734 86.3696 144.592 86.4437 144.491L89.2475 140.645C89.321 140.544 89.4628 140.521 89.5643 140.595C89.6655 140.669 89.6879 140.81 89.6138 140.912L86.8101 144.758C86.7658 144.82 86.6967 144.851 86.6266 144.851Z" fill="white"/>
</svg>