<svg width="606" height="369" viewBox="0 0 606 369" fill="none" xmlns="http://www.w3.org/2000/svg">
<path d="M160.385 212.467H51.5227C48.164 212.467 45.4413 209.745 45.4413 206.387V87.24C45.4413 83.8813 48.164 81.16 51.5227 81.16H160.385C163.744 81.16 166.467 83.8813 166.467 87.24V206.387C166.467 209.745 163.744 212.467 160.385 212.467Z" fill="#FDD6AF"/>
<path d="M149.312 194.669H62.5973C60.112 194.669 58.0987 192.656 58.0987 190.171V103.456C58.0987 100.972 60.112 98.9573 62.5973 98.9573H149.312C151.796 98.9573 153.811 100.972 153.811 103.456V190.171C153.811 192.656 151.796 194.669 149.312 194.669Z" fill="#175D54"/>
<path d="M172.333 263.488H39.5747C34.624 263.488 30.6107 259.473 30.6107 254.523V221.432C30.6107 216.481 34.624 212.467 39.5747 212.467H172.333C177.284 212.467 181.297 216.481 181.297 221.432V254.523C181.297 259.473 177.284 263.488 172.333 263.488Z" fill="#FCCE9E"/>
<path d="M181.297 231.748H30.6107V221.432H181.297V231.748Z" fill="#FDD6AF"/>
<path d="M174.113 240.745H125.071V235.209H174.113V240.745Z" fill="#C29D79"/>
<path d="M110.041 240.745H121.708V235.209H110.041V240.745Z" fill="#C29D79"/>
<path d="M94.2867 240.745H105.955V235.209H94.2867V240.745Z" fill="#C29D79"/>
<path d="M91.0573 237.977C91.0573 239.507 89.8173 240.745 88.288 240.745C86.7587 240.745 85.52 239.507 85.52 237.977C85.52 236.448 86.7587 235.209 88.288 235.209C89.8173 235.209 91.0573 236.448 91.0573 237.977Z" fill="#C29D79"/>
<path d="M153.811 203.371C153.811 204.9 152.571 206.139 151.041 206.139C149.513 206.139 148.273 204.9 148.273 203.371C148.273 201.841 149.513 200.603 151.041 200.603C152.571 200.603 153.811 201.841 153.811 203.371Z" fill="#C29D79"/>
<path d="M63.668 229.079H35.488V223.888H63.668V229.079Z" fill="#C29D79"/>
<path d="M111.288 175.607H110.179H102.376H98.0373L98.572 173.927H113.205C113.081 174.875 112.271 175.607 111.288 175.607ZM112.461 172.143H99.1413L99.7107 170.359H109.831C109.805 170.452 109.791 170.551 109.791 170.652C109.791 171.252 110.277 171.739 110.879 171.739H111.288H111.412L111.408 171.751C111.803 171.776 112.165 171.917 112.461 172.143ZM112.421 168.575H100.28L100.848 166.791H112.991L112.421 168.575ZM113.559 165.007H101.417L101.921 163.424H76.8347L76.8987 163.223H121.204L121.14 163.424H114.064L113.559 165.007ZM121.773 161.439H77.4667L78.036 159.655H122.343L121.773 161.439ZM122.911 157.871H78.6053L79.1733 156.087H123.48L122.911 157.871ZM124.049 154.303H80.0667L81.848 152.519H92.0787L90.8467 153.776H104.999L105.4 152.519H117.541L117.141 153.776H124.217L124.049 154.303ZM118.111 150.735H105.968L106.537 148.951H118.68L118.111 150.735ZM93.828 150.735H83.628L85.408 148.951H95.5773L93.828 150.735ZM119.248 147.167H107.107L107.675 145.383H119.817L119.248 147.167ZM97.3267 147.167H87.188L88.968 145.383H99.076L97.3267 147.167ZM120.387 143.599H108.244C108.413 143.075 108.611 142.48 108.837 141.815H120.955L120.387 143.599ZM100.825 143.599H90.7493L92.5293 141.815H102.575L100.825 143.599ZM121.524 140.031H109.453C109.649 139.472 109.859 138.877 110.084 138.248H122.093L121.524 140.031ZM104.324 140.031H96.4667C96.308 139.627 95.9147 139.34 95.4547 139.34H94.9987H91.4693C90.7013 139.34 90.04 138.895 89.7267 138.248H106.073L104.324 140.031ZM122.661 136.464H110.725C110.961 135.812 111.177 135.217 111.373 134.68H123.231L122.661 136.464ZM107.809 136.464H89.78C90.112 135.872 90.7427 135.473 91.4693 135.473H98.8573L99.6493 134.68H109.447C108.915 135.279 108.369 135.873 107.809 136.464ZM123.8 132.896H112.035C112.375 131.992 112.611 131.397 112.741 131.112H124.368L123.8 132.896ZM110.977 132.896H101.431L103.211 131.112H112.404C111.941 131.711 111.465 132.305 110.977 132.896ZM124.937 129.328H104.991L106.771 127.544H125.507L124.937 129.328ZM130.725 125.76H108.551L110.332 123.976H129.831C130.372 124.319 130.731 124.923 130.731 125.611C130.731 125.66 130.729 125.711 130.725 125.76ZM125.117 122.192H112.112L113.892 120.408H133.807C133.392 121.064 132.66 121.501 131.827 121.501H127.433H126.131C125.669 121.501 125.276 121.788 125.117 122.192ZM134.101 118.624H115.672L117.452 116.84H132.072C133.067 116.944 133.876 117.671 134.101 118.624Z" fill="#487C75"/>
<path d="M139.295 121.501H138.383C137.549 121.501 136.817 121.064 136.404 120.408H141.273C140.86 121.064 140.128 121.501 139.295 121.501ZM141.569 118.624H136.108C136.333 117.671 137.143 116.944 138.137 116.84H139.54C140.535 116.944 141.344 117.671 141.569 118.624Z" fill="#487C75"/>
<path d="M71.084 139.34H61.592V138.248H71.084V139.34ZM71.084 136.464H61.592V134.68H71.084V136.464ZM71.084 132.896H61.592V131.112H71.084V132.896ZM71.084 129.328H61.592V127.544H71.084V129.328ZM71.084 125.76H61.592V123.976H71.084V125.76ZM71.084 122.192H61.592V120.408H71.084V122.192ZM71.084 118.624H61.592V116.84H71.084V118.624ZM71.084 115.056H61.592V113.272H71.084V115.056ZM97.2707 111.488H61.592V109.704H97.2707V111.488ZM97.2707 107.92H61.592V106.136H97.2707V107.92ZM97.2707 104.352H61.592V103.661H71.084H97.2707V104.352Z" fill="#326D65"/>
<path d="M149.592 189.455H140.1V188.197H149.592V189.455ZM149.592 186.415H140.1V184.631H149.592V186.415ZM149.592 182.847H140.1V181.063H149.592V182.847ZM149.592 179.279H140.1V177.495H149.592V179.279ZM149.592 175.711H140.1V173.927H149.592V175.711ZM149.592 172.143H140.1V170.359H149.592V172.143ZM149.592 168.575H140.1V166.791H149.592V168.575ZM149.592 165.007H140.1V163.223H149.592V165.007ZM149.592 161.439H140.1V159.655H149.592V161.439ZM149.592 157.871H140.1V156.087H149.592V157.871ZM149.592 154.303H140.1V153.776H149.592V154.303Z" fill="#326D65"/>
<path d="M153.723 102.568H58.1853C58.3173 101.911 58.592 101.304 58.9773 100.784H152.932C153.316 101.304 153.591 101.911 153.723 102.568Z" fill="#25645D"/>
<path d="M153.811 106.136H97.2707V104.352H153.811V106.136ZM61.592 106.136H58.0987V104.352H61.592V106.136Z" fill="#25645D"/>
<path d="M97.2707 106.136H61.592V104.352H97.2707V106.136Z" fill="#3D746D"/>
<path d="M153.811 109.704H97.2707V107.92H153.811V109.704ZM61.592 109.704H58.0987V107.92H61.592V109.704Z" fill="#25645D"/>
<path d="M97.2707 109.704H61.592V107.92H97.2707V109.704Z" fill="#3D746D"/>
<path d="M153.811 113.272H71.084V113.153H97.2707V111.488H153.811V113.272ZM61.592 113.272H58.0987V111.488H61.592V113.153V113.272Z" fill="#25645D"/>
<path d="M71.084 113.272H61.592V113.153V111.488H97.2707V113.153H71.084V113.272Z" fill="#3D746D"/>
<path d="M153.811 116.84H139.54C139.46 116.832 139.377 116.827 139.295 116.827H138.383C138.3 116.827 138.219 116.832 138.137 116.84H132.072C131.992 116.832 131.909 116.827 131.827 116.827H128.924H126.02H117.465L117.452 116.84H71.084V115.056H153.811V116.84Z" fill="#25645D"/>
<path d="M132.072 116.84H117.452L117.465 116.827H126.02H128.924H131.827C131.909 116.827 131.992 116.832 132.072 116.84Z" fill="#52827B"/>
<path d="M139.54 116.84H138.137C138.219 116.832 138.3 116.827 138.383 116.827H139.295C139.377 116.827 139.46 116.832 139.54 116.84Z" fill="#52827B"/>
<path d="M61.592 116.84H58.0987V115.056H61.592V116.84Z" fill="#25645D"/>
<path d="M71.084 116.84H61.592V115.056H71.084V116.84Z" fill="#3D746D"/>
<path d="M153.811 120.408H141.273C141.501 120.048 141.632 119.621 141.632 119.164C141.632 118.979 141.611 118.797 141.569 118.624H153.811V120.408ZM136.404 120.408H133.807C134.033 120.048 134.164 119.621 134.164 119.164C134.164 118.979 134.143 118.797 134.101 118.624H136.108C136.067 118.797 136.045 118.979 136.045 119.164C136.045 119.621 136.177 120.048 136.404 120.408ZM113.892 120.408H71.084V118.624H115.672L113.892 120.408Z" fill="#25645D"/>
<path d="M133.807 120.408H113.892L115.672 118.624H134.101C134.143 118.797 134.164 118.979 134.164 119.164C134.164 119.621 134.033 120.048 133.807 120.408Z" fill="#52827B"/>
<path d="M141.273 120.408H136.404C136.177 120.048 136.045 119.621 136.045 119.164C136.045 118.979 136.067 118.797 136.108 118.624H141.569C141.611 118.797 141.632 118.979 141.632 119.164C141.632 119.621 141.501 120.048 141.273 120.408Z" fill="#52827B"/>
<path d="M61.592 120.408H58.0987V118.624H61.592V120.408Z" fill="#25645D"/>
<path d="M71.084 120.408H61.592V118.624H71.084V120.408Z" fill="#3D746D"/>
<path d="M153.811 123.976H129.831C129.532 123.787 129.177 123.676 128.797 123.676H126.74H126.131C125.529 123.676 125.043 123.189 125.043 122.588C125.043 122.448 125.069 122.315 125.117 122.192H153.811V123.976ZM110.332 123.976H71.084V122.192H112.112L110.332 123.976Z" fill="#25645D"/>
<path d="M129.831 123.976H110.332L112.112 122.192H125.117C125.069 122.315 125.043 122.448 125.043 122.588C125.043 123.189 125.529 123.676 126.131 123.676H126.74H128.797C129.177 123.676 129.532 123.787 129.831 123.976Z" fill="#52827B"/>
<path d="M61.592 123.976H58.0987V122.192H61.592V123.976Z" fill="#25645D"/>
<path d="M71.084 123.976H61.592V122.192H71.084V123.976Z" fill="#3D746D"/>
<path d="M153.811 127.544H125.507H128.797C129.815 127.544 130.649 126.757 130.725 125.76H153.811V127.544ZM106.771 127.544H71.084V125.76H108.551L106.771 127.544Z" fill="#25645D"/>
<path d="M128.797 127.544H125.507H106.771L108.551 125.76H130.725C130.649 126.757 129.815 127.544 128.797 127.544Z" fill="#52827B"/>
<path d="M61.592 127.544H58.0987V125.76H61.592V127.544Z" fill="#25645D"/>
<path d="M71.084 127.544H61.592V125.76H71.084V127.544Z" fill="#3D746D"/>
<path d="M153.811 131.112H124.368L124.937 129.328H153.811V131.112ZM112.741 131.112H112.404C112.417 131.095 112.431 131.077 112.444 131.06H112.765C112.757 131.076 112.749 131.093 112.741 131.112ZM103.211 131.112H71.084V129.328H104.991L103.211 131.112Z" fill="#25645D"/>
<path d="M124.368 131.112H112.741C112.749 131.093 112.757 131.076 112.765 131.06H112.444C112.431 131.077 112.417 131.095 112.404 131.112H103.211L104.991 129.328H124.937L124.368 131.112Z" fill="#52827B"/>
<path d="M61.592 131.112H58.0987V129.328H61.592V131.112Z" fill="#25645D"/>
<path d="M71.084 131.112H61.592V129.328H71.084V131.112Z" fill="#3D746D"/>
<path d="M153.811 134.68H123.231L123.8 132.896H153.811V134.68ZM111.373 134.68H109.447C109.971 134.089 110.481 133.495 110.977 132.896H112.035C111.847 133.396 111.627 133.991 111.373 134.68ZM99.6493 134.68H71.084V132.896H101.431L99.6493 134.68Z" fill="#25645D"/>
<path d="M123.231 134.68H111.373C111.627 133.991 111.847 133.396 112.035 132.896H123.8L123.231 134.68ZM109.447 134.68H99.6493L101.431 132.896H110.977C110.481 133.495 109.971 134.089 109.447 134.68Z" fill="#52827B"/>
<path d="M61.592 134.68H58.0987V132.896H61.592V134.68Z" fill="#25645D"/>
<path d="M71.084 134.68H61.592V132.896H71.084V134.68Z" fill="#3D746D"/>
<path d="M153.811 138.248H122.093L122.661 136.464H153.811V138.248ZM110.084 138.248H106.073L106.815 137.492C107.151 137.151 107.483 136.808 107.809 136.464H110.725C110.712 136.497 110.7 136.532 110.688 136.568C110.476 137.153 110.275 137.713 110.084 138.248ZM89.7267 138.248H71.084V136.464H89.78C89.624 136.743 89.5347 137.064 89.5347 137.407C89.5347 137.708 89.604 137.993 89.7267 138.248Z" fill="#25645D"/>
<path d="M122.093 138.248H110.084C110.275 137.713 110.476 137.153 110.688 136.568C110.7 136.532 110.712 136.497 110.725 136.464H122.661L122.093 138.248ZM106.073 138.248H89.7267C89.604 137.993 89.5347 137.708 89.5347 137.407C89.5347 137.064 89.624 136.743 89.78 136.464H107.809C107.483 136.808 107.151 137.151 106.815 137.492L106.073 138.248Z" fill="#52827B"/>
<path d="M61.592 138.248H58.0987V136.464H61.592V138.248Z" fill="#25645D"/>
<path d="M71.084 138.248H61.592V136.464H71.084V138.248Z" fill="#3D746D"/>
<path d="M153.811 141.815H120.955L121.524 140.031H153.811V141.815ZM108.837 141.815H102.575L104.324 140.031H109.453C109.228 140.673 109.023 141.268 108.837 141.815ZM92.5293 141.815H58.0987V140.031H96.4667C96.5147 140.155 96.5413 140.288 96.5413 140.428C96.5413 141.029 96.0547 141.516 95.4547 141.516H92.828L92.5293 141.815Z" fill="#25645D"/>
<path d="M120.955 141.815H108.837C109.023 141.268 109.228 140.673 109.453 140.031H121.524L120.955 141.815ZM102.575 141.815H92.5293L92.828 141.516H95.4547C96.0547 141.516 96.5413 141.029 96.5413 140.428C96.5413 140.288 96.5147 140.155 96.4667 140.031H104.324L102.575 141.815Z" fill="#52827B"/>
<path d="M153.811 145.383H119.817L120.387 143.599H153.811V145.383ZM107.675 145.383H99.076L100.825 143.599H108.244C108.221 143.669 108.2 143.737 108.179 143.805L107.675 145.383ZM88.968 145.383H58.0987V143.599H90.7493L88.968 145.383Z" fill="#25645D"/>
<path d="M119.817 145.383H107.675L108.179 143.805C108.2 143.737 108.221 143.669 108.244 143.599H120.387L119.817 145.383ZM99.076 145.383H88.968L90.7493 143.599H100.825L99.076 145.383Z" fill="#52827B"/>
<path d="M153.811 148.951H118.68L119.248 147.167H153.811V148.951ZM106.537 148.951H95.5773L97.3267 147.167H107.107L106.537 148.951ZM85.408 148.951H58.0987V147.167H87.188L85.408 148.951Z" fill="#25645D"/>
<path d="M118.68 148.951H106.537L107.107 147.167H119.248L118.68 148.951ZM95.5774 148.951H85.408L87.188 147.167H97.3267L95.5774 148.951Z" fill="#52827B"/>
<path d="M153.811 152.519H117.541L118.111 150.735H153.811V152.519ZM105.4 152.519H92.0787L93.828 150.735H105.968L105.4 152.519ZM81.848 152.519H58.0987V150.735H83.628L81.848 152.519Z" fill="#25645D"/>
<path d="M117.541 152.519H105.4L105.968 150.735H118.111L117.541 152.519ZM92.0787 152.519H81.848L83.628 150.735H93.828L92.0787 152.519Z" fill="#52827B"/>
<path d="M153.811 156.087H149.592V154.303H153.811V156.087ZM140.1 156.087H123.48L124.049 154.303H140.1V156.087ZM79.1733 156.087H58.0987V154.303H80.0667L79.5907 154.78L79.1733 156.087Z" fill="#25645D"/>
<path d="M123.48 156.087H79.1733L79.5907 154.78L80.0667 154.303H124.049L123.48 156.087Z" fill="#52827B"/>
<path d="M149.592 156.087H140.1V154.303H149.592V156.087Z" fill="#3D746D"/>
<path d="M153.811 159.655H149.592V157.871H153.811V159.655ZM140.1 159.655H122.343L122.911 157.871H140.1V159.655ZM78.036 159.655H58.0987V157.871H78.6053L78.036 159.655Z" fill="#25645D"/>
<path d="M122.343 159.655H78.036L78.6053 157.871H122.911L122.343 159.655Z" fill="#52827B"/>
<path d="M149.592 159.655H140.1V157.871H149.592V159.655Z" fill="#3D746D"/>
<path d="M153.811 163.223H149.592V161.439H153.811V163.223ZM140.1 163.223H121.204L121.773 161.439H140.1V163.223ZM76.8987 163.223H58.0987V161.439H77.4667L76.8987 163.223Z" fill="#25645D"/>
<path d="M121.204 163.223H76.8987L77.4667 161.439H121.773L121.204 163.223Z" fill="#52827B"/>
<path d="M149.592 163.223H140.1V161.439H149.592V163.223Z" fill="#3D746D"/>
<path d="M153.811 166.791H149.592V165.007H153.811V166.791ZM140.1 166.791H112.991L113.559 165.007H140.1V166.791ZM100.848 166.791H58.0987V165.007H101.417L100.848 166.791Z" fill="#25645D"/>
<path d="M112.991 166.791H100.848L101.417 165.007H113.559L112.991 166.791Z" fill="#52827B"/>
<path d="M149.592 166.791H140.1V165.007H149.592V166.791Z" fill="#3D746D"/>
<path d="M153.811 170.359H149.592V168.575H153.811V170.359ZM140.1 170.359H109.831C109.959 169.9 110.38 169.564 110.879 169.564H112.105L112.421 168.575H140.1V170.359ZM99.7107 170.359H58.0987V168.575H100.28L99.7107 170.359Z" fill="#25645D"/>
<path d="M109.831 170.359H99.7107L100.28 168.575H112.421L112.105 169.564H110.879C110.38 169.564 109.959 169.9 109.831 170.359Z" fill="#52827B"/>
<path d="M149.592 170.359H140.1V168.575H149.592V170.359Z" fill="#3D746D"/>
<path d="M153.811 173.927H149.592V172.143H153.811V173.927ZM140.1 173.927H113.205C113.216 173.844 113.221 173.759 113.221 173.673C113.221 173.047 112.924 172.493 112.461 172.143H140.1V173.927ZM98.572 173.927H74.5373L74.304 173.499C74.204 173.319 74.0467 173.177 73.856 173.1L71.4773 172.143H99.1413L98.572 173.927Z" fill="#25645D"/>
<path d="M113.205 173.927H98.572L99.1413 172.143H112.461C112.924 172.493 113.221 173.047 113.221 173.673C113.221 173.759 113.216 173.844 113.205 173.927Z" fill="#52827B"/>
<path d="M149.592 173.927H140.1V172.143H149.592V173.927Z" fill="#3D746D"/>
<path d="M71.1427 173.927H58.0987V172.143H67.0707C67.1653 172.272 67.296 172.376 67.4547 172.44L71.1427 173.927Z" fill="#25645D"/>
<path d="M153.811 177.495H149.592V175.711H153.811V177.495ZM140.1 177.495H81.144L82.452 176.389C82.66 176.215 82.768 175.963 82.768 175.711H140.1V177.495Z" fill="#25645D"/>
<path d="M149.592 177.495H140.1V175.711H149.592V177.495Z" fill="#3D746D"/>
<path d="M78.384 177.495H76.4933L75.516 175.711H80.4973L78.384 177.495ZM74.464 177.495H58.0987V175.711H73.4853L74.464 177.495Z" fill="#25645D"/>
<path d="M153.811 181.063H149.592V179.279H153.811V181.063ZM140.1 181.063H76.9173L79.0307 179.279H140.1V181.063Z" fill="#25645D"/>
<path d="M149.592 181.063H140.1V179.279H149.592V181.063Z" fill="#3D746D"/>
<path d="M74.1573 181.063H58.0987V179.279H75.4413L75.704 179.757L74.1573 181.063Z" fill="#25645D"/>
<path d="M153.811 184.631H149.592V182.847H153.811V184.631ZM140.1 184.631H80.3213C80.3213 184.536 80.3053 184.44 80.2747 184.348C80.1827 184.072 79.9627 183.86 79.684 183.777L76.5493 182.847H140.1V184.631Z" fill="#25645D"/>
<path d="M149.592 184.631H140.1V182.847H149.592V184.631Z" fill="#3D746D"/>
<path d="M76.3053 184.631H58.0987V182.847H72.5333C72.5333 182.907 72.54 182.968 72.5533 183.028C72.62 183.349 72.8573 183.605 73.1707 183.699L76.3053 184.631Z" fill="#25645D"/>
<path d="M153.811 188.197H149.592V186.415H153.811V188.197ZM140.1 188.197H77.896L79.2173 186.415H140.1V188.197Z" fill="#25645D"/>
<path d="M149.592 188.197H140.1V186.415H149.592V188.197Z" fill="#3D746D"/>
<path d="M75.6813 188.197H58.0987V186.415H77.0027L75.6813 188.197Z" fill="#25645D"/>
<path d="M153.519 191.765H75.2533L76.5747 189.981H153.811V190.171C153.811 190.732 153.708 191.271 153.519 191.765Z" fill="#25645D"/>
<path d="M73.0387 191.765H58.3893C58.2013 191.271 58.0987 190.732 58.0987 190.171V189.981H74.36L73.0387 191.765Z" fill="#25645D"/>
<path d="M149.312 194.669H73.1027L73.932 193.549H152.281C151.489 194.247 150.449 194.669 149.312 194.669Z" fill="#25645D"/>
<path d="M70.888 194.669H62.5973C61.4587 194.669 60.4187 194.247 59.6267 193.549H71.7173L70.888 194.669Z" fill="#25645D"/>
<path d="M73.932 193.549H71.7173L73.0387 191.765H75.2533L73.932 193.549ZM76.5747 189.981H74.36L75.6813 188.197H77.896L76.5747 189.981ZM79.2173 186.415H77.0027L77.96 185.121L76.3053 184.631H80.3213C80.3213 184.819 80.2613 185.004 80.1453 185.16L79.2173 186.415ZM76.5493 182.847H72.5333C72.5333 182.587 72.6467 182.337 72.8493 182.167L74.1573 181.063H76.9173L75.2573 182.463L76.5493 182.847ZM79.0307 179.279H75.4413L74.464 177.495H76.4933L77.092 178.585L78.384 177.495H81.144L79.0307 179.279ZM82.768 175.711H80.4973L81.304 175.031C81.4707 174.888 81.6747 174.82 81.8773 174.82C82.1307 174.82 82.3813 174.927 82.5573 175.136C82.6987 175.303 82.768 175.507 82.768 175.711ZM75.516 175.711H73.4853L72.8947 174.632L71.1427 173.927H74.5373L75.516 175.711ZM71.4773 172.143H67.0707C66.8947 171.903 66.8427 171.579 66.9627 171.283C67.1027 170.935 67.4373 170.727 67.7893 170.727C67.9 170.727 68.012 170.747 68.12 170.789L71.4773 172.143Z" fill="#326D65"/>
<path d="M74.5373 173.927H71.1427L67.4547 172.44C67.296 172.376 67.1653 172.272 67.0707 172.143H71.4773L73.856 173.1C74.0467 173.177 74.204 173.319 74.304 173.499L74.5373 173.927Z" fill="#3D746D"/>
<path d="M81.144 177.495H78.384L80.4973 175.711H82.768C82.768 175.963 82.66 176.215 82.452 176.389L81.144 177.495ZM76.4933 177.495H74.464L73.4853 175.711H75.516L76.4933 177.495Z" fill="#3D746D"/>
<path d="M76.9173 181.063H74.1573L75.704 179.757L75.4413 179.279H79.0307L76.9173 181.063Z" fill="#3D746D"/>
<path d="M80.3213 184.631H76.3053L73.1707 183.699C72.8573 183.605 72.62 183.349 72.5533 183.028C72.54 182.968 72.5333 182.907 72.5333 182.847H76.5493L79.684 183.777C79.9627 183.86 80.1827 184.072 80.2747 184.348C80.3053 184.44 80.3213 184.536 80.3213 184.631Z" fill="#3D746D"/>
<path d="M77.896 188.197H75.6813L77.0027 186.415H79.2173L77.896 188.197Z" fill="#3D746D"/>
<path d="M75.2533 191.765H73.0387L74.36 189.981H76.5747L75.2533 191.765Z" fill="#3D746D"/>
<path d="M73.1027 194.669H70.888L71.7173 193.549H73.932L73.1027 194.669Z" fill="#3D746D"/>
<path d="M0.0973206 42.6827L18.7227 49.4893L29.992 53.6067L25.6 65.624L41.9987 78.5227L23.3747 71.716L12.1053 67.5987L16.496 55.5813L0.0973206 42.6827Z" fill="#FFDE41"/>
<path d="M47.6307 32.0707L51.8693 45.9347L54.4347 54.324L45.4893 57.0587L45.192 72.3107L40.9533 58.4453L38.388 50.0573L47.3333 47.3213L47.6307 32.0707Z" fill="#FFDE41"/>
<path d="M525.833 212.467H416.969C413.612 212.467 410.889 209.745 410.889 206.387V87.24C410.889 83.8813 413.612 81.16 416.969 81.16H525.833C529.191 81.16 531.913 83.8813 531.913 87.24V206.387C531.913 209.745 529.191 212.467 525.833 212.467Z" fill="#FDD6AF"/>
<path d="M514.759 194.669H428.044C425.56 194.669 423.545 192.656 423.545 190.171V103.456C423.545 100.972 425.56 98.9573 428.044 98.9573H514.759C517.244 98.9573 519.257 100.972 519.257 103.456V190.171C519.257 192.656 517.244 194.669 514.759 194.669Z" fill="#175D54"/>
<path d="M537.78 263.488H405.023C400.071 263.488 396.057 259.473 396.057 254.523V221.432C396.057 216.481 400.071 212.467 405.023 212.467H537.78C542.732 212.467 546.745 216.481 546.745 221.432V254.523C546.745 259.473 542.732 263.488 537.78 263.488Z" fill="#FCCE9E"/>
<path d="M546.745 231.748H396.057V221.432H546.745V231.748Z" fill="#FDD6AF"/>
<path d="M539.56 240.745H490.517V235.209H539.56V240.745Z" fill="#C29D79"/>
<path d="M475.488 240.745H487.156V235.209H475.488V240.745Z" fill="#C29D79"/>
<path d="M459.735 240.745H471.401V235.209H459.735V240.745Z" fill="#C29D79"/>
<path d="M456.504 237.977C456.504 239.507 455.264 240.745 453.736 240.745C452.207 240.745 450.967 239.507 450.967 237.977C450.967 236.448 452.207 235.209 453.736 235.209C455.264 235.209 456.504 236.448 456.504 237.977Z" fill="#C29D79"/>
<path d="M519.257 203.371C519.257 204.9 518.019 206.139 516.489 206.139C514.96 206.139 513.72 204.9 513.72 203.371C513.72 201.841 514.96 200.603 516.489 200.603C518.019 200.603 519.257 201.841 519.257 203.371Z" fill="#C29D79"/>
<path d="M429.115 229.079H400.936V223.888H429.115V229.079Z" fill="#C29D79"/>
<path d="M512.869 102.568H423.633C423.764 101.911 424.04 101.304 424.424 100.784H511.421C511.817 101.447 512.305 102.048 512.869 102.568Z" fill="#25645D"/>
<path d="M519.257 106.136H462.717V104.352H515.987C516.72 104.573 517.497 104.692 518.301 104.692H519.257V106.136ZM427.039 106.136H423.545V104.352H427.039V106.136Z" fill="#25645D"/>
<path d="M519.257 109.704H462.717V107.92H519.257V109.704ZM427.039 109.704H423.545V107.92H427.039V109.704Z" fill="#25645D"/>
<path d="M519.257 113.272H436.531V113.153H462.717V111.488H519.257V113.272ZM427.039 113.272H423.545V111.488H427.039V113.153V113.272Z" fill="#25645D"/>
<path d="M519.257 116.84H436.531V115.056H519.257V116.84ZM427.039 116.84H423.545V115.056H427.039V116.84Z" fill="#25645D"/>
<path d="M519.257 120.408H492.723C492.328 119.807 491.885 119.212 491.393 118.624H519.257V120.408ZM478.283 120.408H436.531V118.624H478.377C478.372 119.225 478.34 119.819 478.283 120.408ZM427.039 120.408H423.545V118.624H427.039V120.408Z" fill="#25645D"/>
<path d="M519.257 123.976H494.517C494.301 123.376 494.048 122.783 493.752 122.192H519.257V123.976ZM477.623 123.976H436.531V122.192H478.032C477.921 122.793 477.784 123.388 477.623 123.976ZM427.039 123.976H423.545V122.192H427.039V123.976Z" fill="#25645D"/>
<path d="M519.257 127.544H495.364C495.289 126.947 495.185 126.352 495.045 125.76H519.257V127.544ZM476.331 127.544H436.531V125.76H477.056C476.839 126.361 476.596 126.956 476.331 127.544ZM427.039 127.544H423.545V125.76H427.039V127.544Z" fill="#25645D"/>
<path d="M519.257 131.112H495.452C495.492 130.516 495.505 129.92 495.492 129.328H519.257V131.112ZM474.408 131.112H436.531V129.328H475.448C475.124 129.929 474.776 130.525 474.408 131.112ZM427.039 131.112H423.545V129.328H427.039V131.112Z" fill="#25645D"/>
<path d="M519.257 134.68H494.928C495.059 134.085 495.171 133.489 495.259 132.896H519.257V134.68ZM482.932 134.68H481.368C481.836 134.089 482.269 133.495 482.661 132.896H483.399C483.295 133.356 483.148 133.951 482.932 134.68ZM471.872 134.68H436.531V132.896H473.215C472.787 133.497 472.339 134.092 471.872 134.68ZM427.039 134.68H423.545V132.896H427.039V134.68Z" fill="#25645D"/>
<path d="M519.257 138.248H493.915C494.119 137.653 494.305 137.059 494.476 136.464H519.257V138.248ZM481.66 138.248H478.085C478.7 137.657 479.285 137.063 479.837 136.464H482.347C482.243 136.753 482.131 137.056 482.008 137.372C481.893 137.671 481.777 137.963 481.66 138.248ZM468.755 138.248H436.531V136.464H470.383C469.856 137.065 469.312 137.661 468.755 138.248ZM427.039 138.248H423.545V136.464H427.039V138.248Z" fill="#25645D"/>
<path d="M519.257 141.815H492.515C492.775 141.223 493.023 140.628 493.257 140.031H519.257V141.815ZM480.061 141.815H474.256C474.889 141.244 475.536 140.652 476.203 140.031H480.896C480.611 140.667 480.329 141.263 480.061 141.815ZM465.121 141.815H423.545V140.031H466.997C466.383 140.633 465.756 141.228 465.121 141.815Z" fill="#25645D"/>
<path d="M519.257 145.383H490.827C491.125 144.792 491.417 144.197 491.701 143.599H519.257V145.383ZM478.284 145.383H470.197C470.875 144.799 471.556 144.208 472.249 143.599H479.173C478.991 143.961 478.821 144.299 478.668 144.608C478.536 144.876 478.408 145.133 478.284 145.383ZM461.072 145.383H423.545V143.599H463.14C462.455 144.203 461.764 144.796 461.072 145.383Z" fill="#25645D"/>
<path d="M519.257 148.951H488.947C489.268 148.361 489.588 147.767 489.905 147.167H519.257V148.951ZM476.476 148.951H466.079C466.769 148.344 467.451 147.753 468.129 147.167H477.383C477.065 147.791 476.765 148.376 476.476 148.951ZM456.759 148.951H423.545V147.167H458.936C458.207 147.769 457.479 148.364 456.759 148.951Z" fill="#25645D"/>
<path d="M519.257 152.519H486.983C487.307 151.932 487.636 151.336 487.968 150.735H519.257V152.519ZM474.776 152.519H462.131C462.795 151.899 463.44 151.307 464.073 150.735H475.597C475.325 151.304 475.053 151.889 474.776 152.519ZM452.405 152.519H423.545V150.735H454.569C453.832 151.337 453.109 151.932 452.405 152.519Z" fill="#25645D"/>
<path d="M519.257 156.087H515.039V154.303H519.257V156.087ZM505.547 156.087H492.169C492.369 155.615 492.589 155.116 492.827 154.58C490.04 154.58 488.647 154.58 485.86 154.58C485.909 154.488 485.959 154.396 486.008 154.303H505.547V156.087ZM448.7 156.087H423.545V154.303H450.304C449.808 154.735 449.327 155.161 448.863 155.584C448.807 155.756 448.752 155.924 448.7 156.087ZM473.905 154.58C468.331 154.58 465.544 154.58 459.971 154.58C460.067 154.487 460.161 154.395 460.256 154.303H474.017C473.98 154.395 473.943 154.487 473.905 154.58Z" fill="#25645D"/>
<path d="M519.257 159.655H515.039V157.871H519.257V159.655ZM505.547 159.655H490.885C491.041 159.067 491.231 158.483 491.456 157.871H505.547V159.655ZM447.74 159.655H423.545V157.871H448.16C447.987 158.496 447.847 159.079 447.74 159.655Z" fill="#25645D"/>
<path d="M519.257 163.223H515.039V161.439H519.257V163.223ZM505.547 163.223H490.324C490.365 162.584 490.428 161.997 490.513 161.439H505.547V163.223ZM447.483 163.223H423.545V161.439H447.515C447.477 161.996 447.467 162.58 447.483 163.223Z" fill="#25645D"/>
<path d="M519.257 166.791H515.039V165.007H519.257V166.791ZM505.547 166.791H483.504C483.46 166.228 483.443 165.637 483.441 165.007H505.547V166.791ZM471.852 166.791H423.545V165.007H471.745C471.763 165.637 471.795 166.228 471.852 166.791Z" fill="#25645D"/>
<path d="M519.257 170.359H515.039V168.575H519.257V170.359ZM505.547 170.359H484.297C484.057 169.771 483.88 169.183 483.751 168.575H505.547V170.359ZM472.733 170.359H423.545V168.575H472.144C472.288 169.183 472.479 169.771 472.733 170.359Z" fill="#25645D"/>
<path d="M519.257 173.927H515.039V172.143H519.257V173.927ZM505.547 173.927H486.488C485.989 173.303 485.569 172.713 485.215 172.143H505.547V173.927ZM475.013 173.927H423.545V172.143H473.696C474.064 172.713 474.499 173.303 475.013 173.927Z" fill="#25645D"/>
<path d="M519.257 177.495H515.039V175.711H519.257V177.495ZM505.547 177.495H423.545V175.711H476.605C476.823 175.939 477.049 176.172 477.285 176.411C481.851 176.411 484.135 176.411 488.7 176.411C488.469 176.172 488.248 175.939 488.036 175.711H505.547V177.495Z" fill="#25645D"/>
<path d="M519.257 181.063H515.039V179.279H519.257V181.063ZM505.547 181.063H423.545V179.279H505.547V181.063Z" fill="#25645D"/>
<path d="M519.257 184.631H515.039V182.847H519.257V184.631ZM505.547 184.631H423.545V182.847H505.547V184.631Z" fill="#25645D"/>
<path d="M519.257 188.197H515.039V186.415H519.257V188.197ZM505.547 188.197H423.545V186.415H505.547V188.197Z" fill="#25645D"/>
<path d="M518.967 191.765H423.836C423.648 191.271 423.545 190.732 423.545 190.171V189.981H519.257V190.171C519.257 190.732 519.155 191.271 518.967 191.765Z" fill="#25645D"/>
<path d="M514.759 194.669H428.044C426.905 194.669 425.867 194.247 425.073 193.549H517.729C516.936 194.247 515.897 194.669 514.759 194.669Z" fill="#25645D"/>
<path d="M436.531 139.34H427.039V138.248H436.531V139.34ZM436.531 136.464H427.039V134.68H436.531V136.464ZM436.531 132.896H427.039V131.112H436.531V132.896ZM436.531 129.328H427.039V127.544H436.531V129.328ZM436.531 125.76H427.039V123.976H436.531V125.76ZM436.531 122.192H427.039V120.408H436.531V122.192ZM436.531 118.624H427.039V116.84H436.531V118.624ZM436.531 115.056H427.039V113.272H436.531V115.056ZM462.717 111.488H427.039V109.704H462.717V111.488ZM462.717 107.92H427.039V106.136H462.717V107.92ZM462.717 104.352H427.039V103.661H436.531H462.717V104.352Z" fill="#326D65"/>
<path d="M462.717 106.136H427.039V104.352H462.717V106.136Z" fill="#3D746D"/>
<path d="M462.717 109.704H427.039V107.92H462.717V109.704Z" fill="#3D746D"/>
<path d="M436.531 113.272H427.039V113.153V111.488H462.717V113.153H436.531V113.272Z" fill="#3D746D"/>
<path d="M436.531 116.84H427.039V115.056H436.531V116.84Z" fill="#3D746D"/>
<path d="M436.531 120.408H427.039V118.624H436.531V120.408Z" fill="#3D746D"/>
<path d="M436.531 123.976H427.039V122.192H436.531V123.976Z" fill="#3D746D"/>
<path d="M436.531 127.544H427.039V125.76H436.531V127.544Z" fill="#3D746D"/>
<path d="M436.531 131.112H427.039V129.328H436.531V131.112Z" fill="#3D746D"/>
<path d="M436.531 134.68H427.039V132.896H436.531V134.68Z" fill="#3D746D"/>
<path d="M436.531 138.248H427.039V136.464H436.531V138.248Z" fill="#3D746D"/>
<path d="M515.039 189.455H505.547V188.197H515.039V189.455ZM515.039 186.415H505.547V184.631H515.039V186.415ZM515.039 182.847H505.547V181.063H515.039V182.847ZM515.039 179.279H505.547V177.495H515.039V179.279ZM515.039 175.711H505.547V173.927H515.039V175.711ZM515.039 172.143H505.547V170.359H515.039V172.143ZM515.039 168.575H505.547V166.791H515.039V168.575ZM515.039 165.007H505.547V163.223H515.039V165.007ZM515.039 161.439H505.547V159.655H515.039V161.439ZM515.039 157.871H505.547V156.087H515.039V157.871ZM515.039 154.303H505.547V153.776H515.039V154.303Z" fill="#326D65"/>
<path d="M515.039 156.087H505.547V154.303H515.039V156.087Z" fill="#3D746D"/>
<path d="M515.039 159.655H505.547V157.871H515.039V159.655Z" fill="#3D746D"/>
<path d="M515.039 163.223H505.547V161.439H515.039V163.223Z" fill="#3D746D"/>
<path d="M515.039 166.791H505.547V165.007H515.039V166.791Z" fill="#3D746D"/>
<path d="M515.039 170.359H505.547V168.575H515.039V170.359Z" fill="#3D746D"/>
<path d="M515.039 173.927H505.547V172.143H515.039V173.927Z" fill="#3D746D"/>
<path d="M515.039 177.495H505.547V175.711H515.039V177.495Z" fill="#3D746D"/>
<path d="M515.039 181.063H505.547V179.279H515.039V181.063Z" fill="#3D746D"/>
<path d="M515.039 184.631H505.547V182.847H515.039V184.631Z" fill="#3D746D"/>
<path d="M515.039 188.197H505.547V186.415H515.039V188.197Z" fill="#3D746D"/>
<path d="M574.319 119.769L562.36 120.271L555.124 120.575L554.8 112.859L542.679 109.448L554.636 108.947L561.872 108.643L562.196 116.359L574.319 119.769Z" fill="#FFDE41"/>
<path d="M550.256 136.657L544.692 129.901L541.325 125.815L545.684 122.225L542.331 113.649L547.893 120.405L551.26 124.492L546.901 128.081L550.256 136.657Z" fill="#FFDE41"/>
<path d="M488.036 175.711H476.605C476.005 175.079 475.477 174.488 475.013 173.927H486.488C486.939 174.488 487.452 175.079 488.036 175.711ZM485.215 172.143H473.696C473.303 171.533 472.988 170.947 472.733 170.359H484.297C484.536 170.947 484.837 171.533 485.215 172.143ZM483.751 168.575H472.144C472.008 168.003 471.915 167.413 471.852 166.791H483.504C483.551 167.413 483.629 168.003 483.751 168.575ZM483.441 165.007H471.745C471.739 164.753 471.735 164.495 471.733 164.228C462.049 164.228 457.208 164.228 447.525 164.228C447.505 163.876 447.491 163.543 447.483 163.223H490.324C490.303 163.544 490.287 163.879 490.276 164.228C487.545 164.228 486.18 164.228 483.448 164.228C483.444 164.495 483.441 164.753 483.441 165.007ZM490.513 161.439H447.515C447.556 160.823 447.631 160.241 447.74 159.655H490.885C490.731 160.235 490.608 160.819 490.513 161.439ZM491.456 157.871H448.16C448.313 157.319 448.493 156.732 448.7 156.087H492.169C491.899 156.721 491.663 157.308 491.456 157.871ZM486.008 154.303H474.017C474.279 153.663 474.531 153.075 474.776 152.519H486.983C486.651 153.121 486.325 153.716 486.008 154.303ZM460.256 154.303H450.304C450.98 153.716 451.683 153.121 452.405 152.519H462.131C461.523 153.088 460.899 153.681 460.256 154.303ZM487.968 150.735H475.597C475.885 150.131 476.176 149.547 476.476 148.951H488.947C488.62 149.552 488.293 150.147 487.968 150.735ZM464.073 150.735H454.569C455.288 150.148 456.02 149.553 456.759 148.951H466.079C465.421 149.528 464.755 150.12 464.073 150.735ZM489.905 147.167H477.383C477.667 146.609 477.964 146.021 478.284 145.383H490.827C490.525 145.981 490.216 146.577 489.905 147.167ZM468.129 147.167H458.936C459.647 146.58 460.36 145.985 461.072 145.383H470.197C469.505 145.981 468.819 146.572 468.129 147.167ZM491.701 143.599H479.173C479.445 143.061 479.744 142.468 480.061 141.815H492.515C492.255 142.412 491.981 143.008 491.701 143.599ZM472.249 143.599H463.14C463.807 143.012 464.469 142.419 465.121 141.815H474.256C473.572 142.432 472.905 143.024 472.249 143.599ZM493.257 140.031H480.896C481.148 139.469 481.405 138.875 481.66 138.248H493.915C493.711 138.844 493.491 139.439 493.257 140.031ZM476.203 140.031H466.997C467.596 139.444 468.183 138.851 468.755 138.248H478.085C478.068 138.264 478.051 138.28 478.035 138.296C477.407 138.901 476.797 139.477 476.203 140.031ZM494.476 136.464H482.347C482.584 135.799 482.776 135.204 482.932 134.68H494.928C494.797 135.275 494.645 135.869 494.476 136.464ZM479.837 136.464H470.383C470.896 135.876 471.393 135.283 471.872 134.68H481.368C480.893 135.279 480.381 135.873 479.837 136.464ZM495.259 132.896H483.399C483.515 132.387 483.579 132.043 483.627 131.864C483.495 131.864 483.428 131.864 483.296 131.864C483.097 132.209 482.887 132.553 482.661 132.896H473.215C473.633 132.308 474.032 131.713 474.408 131.112H495.452C495.412 131.705 495.347 132.3 495.259 132.896ZM495.492 129.328H475.448C475.765 128.739 476.06 128.147 476.331 127.544H495.364C495.436 128.136 495.479 128.731 495.492 129.328ZM495.045 125.76H477.056C477.269 125.172 477.459 124.577 477.623 123.976H494.517C494.729 124.567 494.905 125.161 495.045 125.76ZM493.752 122.192H478.032C478.14 121.604 478.225 121.008 478.283 120.408H492.723C493.111 120.997 493.453 121.592 493.752 122.192ZM491.393 118.624H478.377C478.38 118.295 478.376 117.964 478.363 117.632C483.221 117.632 485.651 117.632 490.509 117.631C490.82 117.96 491.115 118.291 491.393 118.624Z" fill="#5F8B84"/>
<path d="M492.723 120.408H478.283C478.34 119.819 478.372 119.225 478.377 118.624H491.393C491.885 119.212 492.328 119.807 492.723 120.408Z" fill="#678F8A"/>
<path d="M494.517 123.976H477.623C477.784 123.388 477.921 122.793 478.032 122.192H493.752C494.048 122.783 494.301 123.376 494.517 123.976Z" fill="#678F8A"/>
<path d="M495.364 127.544H476.331C476.596 126.956 476.839 126.361 477.056 125.76H495.045C495.185 126.352 495.289 126.947 495.364 127.544Z" fill="#678F8A"/>
<path d="M495.452 131.112H474.408C474.776 130.525 475.124 129.929 475.448 129.328H495.492C495.505 129.92 495.492 130.516 495.452 131.112Z" fill="#678F8A"/>
<path d="M494.928 134.68H482.932C483.148 133.951 483.295 133.356 483.399 132.896H495.259C495.171 133.489 495.059 134.085 494.928 134.68ZM481.368 134.68H471.872C472.339 134.092 472.787 133.497 473.215 132.896H482.661C482.269 133.495 481.836 134.089 481.368 134.68Z" fill="#678F8A"/>
<path d="M493.915 138.248H481.66C481.777 137.963 481.893 137.671 482.008 137.372C482.131 137.056 482.243 136.753 482.347 136.464H494.476C494.305 137.059 494.119 137.653 493.915 138.248ZM478.085 138.248H468.755C469.312 137.661 469.856 137.065 470.383 136.464H479.837C479.285 137.063 478.7 137.657 478.085 138.248Z" fill="#678F8A"/>
<path d="M492.515 141.815H480.061C480.329 141.263 480.611 140.667 480.896 140.031H493.257C493.023 140.628 492.775 141.223 492.515 141.815ZM474.256 141.815H465.121C465.756 141.228 466.383 140.633 466.997 140.031H476.203C475.536 140.652 474.889 141.244 474.256 141.815Z" fill="#678F8A"/>
<path d="M490.827 145.383H478.284C478.408 145.133 478.536 144.876 478.668 144.608C478.821 144.299 478.991 143.961 479.173 143.599H491.701C491.417 144.197 491.125 144.792 490.827 145.383ZM470.197 145.383H461.072C461.764 144.796 462.455 144.203 463.14 143.599H472.249C471.556 144.208 470.875 144.799 470.197 145.383Z" fill="#678F8A"/>
<path d="M488.947 148.951H476.476C476.765 148.376 477.065 147.791 477.383 147.167H489.905C489.588 147.767 489.268 148.361 488.947 148.951ZM466.079 148.951H456.759C457.479 148.364 458.207 147.769 458.936 147.167H468.129C467.451 147.753 466.769 148.344 466.079 148.951Z" fill="#678F8A"/>
<path d="M486.983 152.519H474.776C475.053 151.889 475.325 151.304 475.597 150.735H487.968C487.636 151.336 487.307 151.932 486.983 152.519ZM462.131 152.519H452.405C453.109 151.932 453.832 151.337 454.569 150.735H464.073C463.44 151.307 462.795 151.899 462.131 152.519Z" fill="#678F8A"/>
<path d="M492.169 156.087H448.7C448.752 155.924 448.807 155.756 448.863 155.584C449.327 155.161 449.808 154.735 450.304 154.303H460.256C460.161 154.395 460.067 154.487 459.971 154.58C465.544 154.58 468.331 154.58 473.905 154.58C473.943 154.487 473.98 154.395 474.017 154.303H486.008C485.959 154.396 485.909 154.488 485.86 154.58C488.647 154.58 490.04 154.58 492.827 154.58C492.589 155.116 492.369 155.615 492.169 156.087Z" fill="#678F8A"/>
<path d="M490.885 159.655H447.74C447.847 159.079 447.987 158.496 448.16 157.871H491.456C491.231 158.483 491.041 159.067 490.885 159.655Z" fill="#678F8A"/>
<path d="M490.324 163.223H447.483C447.467 162.58 447.477 161.996 447.515 161.439H490.513C490.428 161.997 490.365 162.584 490.324 163.223Z" fill="#678F8A"/>
<path d="M483.504 166.791H471.852C471.795 166.228 471.763 165.637 471.745 165.007H483.441C483.443 165.637 483.46 166.228 483.504 166.791Z" fill="#678F8A"/>
<path d="M484.297 170.359H472.733C472.479 169.771 472.288 169.183 472.144 168.575H483.751C483.88 169.183 484.057 169.771 484.297 170.359Z" fill="#678F8A"/>
<path d="M486.488 173.927H475.013C474.499 173.303 474.064 172.713 473.696 172.143H485.215C485.569 172.713 485.989 173.303 486.488 173.927Z" fill="#678F8A"/>
<path d="M488.7 176.411C484.135 176.411 481.851 176.411 477.285 176.411C477.049 176.172 476.823 175.939 476.605 175.711H488.036C488.248 175.939 488.469 176.172 488.7 176.411Z" fill="#678F8A"/>
<path d="M599.211 51.5453H588.707C585.348 51.5453 582.625 48.824 582.625 45.4653C582.625 42.1067 585.348 39.384 588.707 39.384H599.211C602.569 39.384 605.292 42.1067 605.292 45.4653C605.292 48.824 602.569 51.5453 599.211 51.5453Z" fill="#C3C5C5"/>
<path d="M554.161 104.692H531.913V87.24C531.913 85.1266 530.836 83.2653 529.199 82.176C528.797 79.44 526.44 77.34 523.593 77.34H505.712C501.288 77.34 497.703 73.7546 497.703 69.332C497.703 64.908 501.288 61.3226 505.712 61.3226H507.656C510.356 61.3226 512.544 59.1333 512.544 56.4346C512.544 53.7346 510.356 51.5453 507.656 51.5453H506.355C502.996 51.5453 500.273 48.824 500.273 45.4653C500.273 42.1066 502.996 39.384 506.355 39.384H539.611C542.311 39.384 544.499 37.196 544.499 34.496C544.499 31.796 542.311 29.608 539.611 29.608H535.128C531.769 29.608 529.047 26.8853 529.047 23.5266C529.047 20.168 531.769 17.4453 535.128 17.4453H570.772C574.131 17.4453 576.853 20.168 576.853 23.5266C576.853 26.8853 574.131 29.608 570.772 29.608H565.053C562.355 29.608 560.165 31.796 560.165 34.496C560.165 37.196 562.355 39.384 565.053 39.384H570.772C574.131 39.384 576.853 42.1066 576.853 45.4653C576.853 48.824 574.131 51.5453 570.772 51.5453H560.753C558.053 51.5453 555.865 53.7346 555.865 56.4346C555.865 59.1333 558.053 61.3226 560.753 61.3226H563.752C568.176 61.3226 571.761 64.908 571.761 69.332C571.761 73.7546 568.176 77.34 563.752 77.34H553.089C549.959 77.34 547.423 79.8773 547.423 83.0066C547.423 86.1373 549.959 88.6733 553.089 88.6733H554.161C558.584 88.6733 562.171 92.26 562.171 96.6826C562.171 101.107 558.584 104.692 554.161 104.692ZM533.099 51.5453C530.4 51.5453 528.211 53.7346 528.211 56.4346C528.211 59.1333 530.4 61.3226 533.099 61.3226H535.309C538.009 61.3226 540.197 59.1333 540.197 56.4346C540.197 53.7346 538.009 51.5453 535.309 51.5453H533.099Z" fill="#C3C5C5"/>
<path d="M531.913 104.692H519.257V104.352V103.456C519.257 100.972 517.244 98.9573 514.759 98.9573H510.62C510.407 98.236 510.293 97.4733 510.293 96.6826C510.293 92.26 513.879 88.6733 518.301 88.6733H523.593C526.723 88.6733 529.26 86.1373 529.26 83.0067C529.26 82.724 529.239 82.4467 529.199 82.176C530.836 83.2653 531.913 85.1266 531.913 87.24V104.692Z" fill="#CDAC8C"/>
<path d="M519.257 104.352H515.987C514.811 103.997 513.749 103.38 512.869 102.568H519.171C519.039 101.911 518.763 101.304 518.379 100.784H511.421C511.083 100.217 510.812 99.604 510.62 98.9573H514.759C517.244 98.9573 519.257 100.972 519.257 103.456V104.352Z" fill="#1B4C46"/>
<path d="M519.171 102.568H512.869C512.305 102.048 511.817 101.447 511.421 100.784H518.379C518.763 101.304 519.039 101.911 519.171 102.568Z" fill="#23524C"/>
<path d="M519.257 104.692H518.301C517.497 104.692 516.72 104.573 515.987 104.352H519.257V104.692Z" fill="#23524C"/>
<path d="M530.569 12.608H516.617C513.259 12.608 510.536 9.88531 510.536 6.52664C510.536 3.16798 513.259 0.445312 516.617 0.445312H530.569C533.927 0.445312 536.649 3.16798 536.649 6.52664C536.649 9.88531 533.927 12.608 530.569 12.608Z" fill="#C3C5C5"/>
<path d="M483.743 71.5853L474.343 66.92C473.091 66.2987 472.58 64.78 473.201 63.528C473.823 62.276 475.341 61.7653 476.593 62.3867L485.993 67.0507C487.245 67.672 487.756 69.1907 487.135 70.4427C486.513 71.6947 484.995 72.2067 483.743 71.5853Z" fill="#FFDE41"/>
<path d="M490.733 63.8227L486.884 54.06C486.372 52.76 487.011 51.2893 488.311 50.7773C489.611 50.264 491.081 50.9027 491.593 52.2027L495.443 61.9653C495.955 63.2653 495.316 64.736 494.016 65.248C492.716 65.7613 491.245 65.1227 490.733 63.8227Z" fill="#FFDE41"/>
<path d="M343.109 212.467H234.247C230.888 212.467 228.165 209.745 228.165 206.387V87.24C228.165 83.8813 230.888 81.16 234.247 81.16H343.109C346.468 81.16 349.191 83.8813 349.191 87.24V206.387C349.191 209.745 346.468 212.467 343.109 212.467Z" fill="#FDD6AF"/>
<path d="M332.035 194.669H245.32C242.836 194.669 240.821 192.656 240.821 190.171V103.456C240.821 100.972 242.836 98.9573 245.32 98.9573H332.035C334.52 98.9573 336.533 100.972 336.533 103.456V190.171C336.533 192.656 334.52 194.669 332.035 194.669Z" fill="#175D54"/>
<path d="M355.057 263.488H222.299C217.348 263.488 213.333 259.473 213.333 254.523V221.432C213.333 216.481 217.348 212.467 222.299 212.467H355.057C360.008 212.467 364.021 216.481 364.021 221.432V254.523C364.021 259.473 360.008 263.488 355.057 263.488Z" fill="#FCCE9E"/>
<path d="M364.021 231.748H213.333V221.432H364.021V231.748Z" fill="#FDD6AF"/>
<path d="M356.837 240.745H307.793V235.209H356.837V240.745Z" fill="#C29D79"/>
<path d="M292.764 240.745H304.432V235.209H292.764V240.745Z" fill="#C29D79"/>
<path d="M277.011 240.745H288.677V235.209H277.011V240.745Z" fill="#C29D79"/>
<path d="M273.78 237.977C273.78 239.507 272.541 240.745 271.012 240.745C269.483 240.745 268.243 239.507 268.243 237.977C268.243 236.448 269.483 235.209 271.012 235.209C272.541 235.209 273.78 236.448 273.78 237.977Z" fill="#C29D79"/>
<path d="M336.533 203.371C336.533 204.9 335.295 206.139 333.765 206.139C332.236 206.139 330.997 204.9 330.997 203.371C330.997 201.841 332.236 200.603 333.765 200.603C335.295 200.603 336.533 201.841 336.533 203.371Z" fill="#C29D79"/>
<path d="M246.392 229.079H218.212V223.888H246.392V229.079Z" fill="#C29D79"/>
<path d="M336.447 102.568H302.709C303.404 102.033 304.056 101.439 304.663 100.784H335.655C336.04 101.304 336.315 101.911 336.447 102.568ZM279.143 102.568H240.909C241.041 101.911 241.316 101.304 241.7 100.784H277.195C277.804 101.439 278.453 102.033 279.143 102.568Z" fill="#25645D"/>
<path d="M336.533 106.136H291.824C294.827 106.021 297.476 105.427 299.771 104.352H336.533V106.136ZM289.693 106.136H279.995V104.352H282.029C284.269 105.427 286.824 106.021 289.693 106.136ZM244.315 106.136H240.821V104.352H244.315V106.136Z" fill="#25645D"/>
<path d="M336.533 109.704H279.995V107.92H336.533V109.704ZM244.315 109.704H240.821V107.92H244.315V109.704Z" fill="#25645D"/>
<path d="M336.533 113.272H253.808V113.153H279.995V111.488H336.533V113.272ZM244.315 113.272H240.821V111.488H244.315V113.153V113.272Z" fill="#25645D"/>
<path d="M336.533 116.84H253.808V115.056H336.533V116.84ZM244.315 116.84H240.821V115.056H244.315V116.84Z" fill="#25645D"/>
<path d="M336.533 120.408H253.808V118.624H336.533V120.408ZM244.315 120.408H240.821V118.624H244.315V120.408Z" fill="#25645D"/>
<path d="M336.533 123.976H253.808V122.192H336.533V123.976ZM244.315 123.976H240.821V122.192H244.315V123.976Z" fill="#25645D"/>
<path d="M336.533 127.544H253.808V125.76H336.533V127.544ZM244.315 127.544H240.821V125.76H244.315V127.544Z" fill="#25645D"/>
<path d="M336.533 131.112H253.808V129.328H336.533V131.112ZM244.315 131.112H240.821V129.328H244.315V131.112Z" fill="#25645D"/>
<path d="M336.533 134.68H253.808V132.896H336.533V134.68ZM244.315 134.68H240.821V132.896H244.315V134.68Z" fill="#25645D"/>
<path d="M336.533 138.248H253.808V136.464H336.533V138.248ZM244.315 138.248H240.821V136.464H244.315V138.248Z" fill="#25645D"/>
<path d="M336.533 141.815H295.379C293.928 141.512 292.379 141.361 290.733 141.361C289.004 141.361 287.385 141.512 285.879 141.815H240.821V140.031H336.533V141.815Z" fill="#25645D"/>
<path d="M336.533 145.383H302.832C302.027 144.703 301.165 144.108 300.249 143.599H336.533V145.383ZM278.256 145.383H240.821V143.599H280.865C279.932 144.108 279.063 144.703 278.256 145.383Z" fill="#25645D"/>
<path d="M336.533 148.951H306.024C305.589 148.316 305.129 147.723 304.643 147.167H336.533V148.951ZM275.113 148.951H240.821V147.167H276.459C276.035 147.66 275.633 148.183 275.256 148.739C275.208 148.808 275.16 148.88 275.113 148.951Z" fill="#25645D"/>
<path d="M336.533 152.519H308.016C307.736 151.9 307.439 151.305 307.124 150.735H336.533V152.519ZM294.321 152.519H287.076C288.1 151.781 289.32 151.412 290.733 151.412C292.113 151.412 293.307 151.785 294.321 152.519ZM273.229 152.519H240.821V150.735H274.065C273.769 151.301 273.491 151.896 273.229 152.519Z" fill="#25645D"/>
<path d="M336.533 156.087H332.315V154.303H336.533V156.087ZM322.823 156.087H309.351C309.163 155.473 308.963 154.88 308.748 154.303H322.823V156.087ZM294.179 156.087H284.483C284.752 155.421 285.059 154.827 285.404 154.303H295.099L294.179 156.087ZM272 156.087H240.821V154.303H272.552C272.356 154.877 272.172 155.472 272 156.087Z" fill="#25645D"/>
<path d="M336.533 159.655H332.315V157.871H336.533V159.655ZM322.823 159.655H310.248C310.125 159.045 309.991 158.451 309.845 157.871H322.823V159.655ZM292.337 159.655H283.472C283.597 159.017 283.736 158.423 283.888 157.871H293.259L292.337 159.655ZM271.187 159.655H240.821V157.871H271.551C271.42 158.449 271.299 159.044 271.187 159.655Z" fill="#25645D"/>
<path d="M336.533 163.223H332.315V161.439H336.533V163.223ZM322.823 163.223H310.829C310.753 162.616 310.668 162.021 310.573 161.439H322.823V163.223ZM290.496 163.223H282.951C283.015 162.601 283.088 162.007 283.171 161.439H291.417L290.496 163.223ZM270.665 163.223H240.821V161.439H270.895C270.811 162.02 270.733 162.616 270.665 163.223Z" fill="#25645D"/>
<path d="M336.533 166.791H332.315V165.007H336.533V166.791ZM322.823 166.791H311.167C311.127 166.185 311.08 165.591 311.025 165.007H322.823V166.791ZM288.656 166.791H282.684C282.713 166.176 282.751 165.581 282.792 165.007H289.576L288.656 166.791ZM270.365 166.791H240.821V165.007H270.491C270.443 165.591 270.4 166.184 270.365 166.791Z" fill="#25645D"/>
<path d="M336.533 170.359H332.315V168.575H336.533V170.359ZM322.823 170.359H311.309C311.299 169.755 311.283 169.16 311.26 168.575H322.823V170.359ZM298.928 170.359H297.163L298.083 168.575H298.888C298.907 169.153 298.92 169.748 298.928 170.359ZM286.815 170.359H282.58C282.587 169.748 282.599 169.153 282.615 168.575H287.735L286.815 170.359ZM270.239 170.359H240.821V168.575H270.283C270.263 169.16 270.248 169.753 270.239 170.359Z" fill="#25645D"/>
<path d="M336.533 173.927H332.315V172.143H336.533V173.927ZM322.823 173.927H311.291C311.307 173.341 311.315 172.747 311.319 172.143H322.823V173.927ZM298.913 173.927H295.321L296.241 172.143H298.935C298.933 172.752 298.925 173.347 298.913 173.927ZM284.973 173.927H282.596C282.584 173.348 282.576 172.753 282.573 172.143H285.895L284.973 173.927ZM270.26 173.927H240.821V172.143H270.231C270.235 172.745 270.244 173.341 270.26 173.927Z" fill="#25645D"/>
<path d="M336.533 177.495H332.315V175.711H336.533V177.495ZM322.823 177.495H311.119C311.161 176.911 311.197 176.316 311.227 175.711H322.823V177.495ZM298.767 177.495H293.48L294.401 175.711H298.859C298.835 176.324 298.804 176.919 298.767 177.495ZM283.133 177.495H282.741C282.705 176.917 282.676 176.323 282.651 175.711H284.053L283.133 177.495ZM270.448 177.495H240.821V175.711H270.331C270.363 176.315 270.401 176.911 270.448 177.495Z" fill="#25645D"/>
<path d="M336.533 181.063H332.315V179.279H336.533V181.063ZM322.823 181.063H310.757C310.835 180.48 310.903 179.885 310.964 179.279H322.823V181.063ZM298.431 181.063H291.64L292.56 179.279H298.628C298.569 179.897 298.504 180.492 298.431 181.063ZM270.839 181.063H240.821V179.279H270.615C270.681 179.885 270.756 180.48 270.839 181.063Z" fill="#25645D"/>
<path d="M336.533 184.631H332.315V182.847H336.533V184.631ZM322.823 184.631H310.153C310.275 184.051 310.387 183.456 310.489 182.847H322.823V184.631ZM297.789 184.631H289.799L290.719 182.847H298.16C298.048 183.477 297.924 184.073 297.789 184.631ZM271.489 184.631H240.821V182.847H271.128C271.237 183.455 271.359 184.049 271.489 184.631Z" fill="#25645D"/>
<path d="M336.533 188.197H332.315V186.415H336.533V188.197ZM322.823 188.197H309.224C309.407 187.623 309.577 187.028 309.736 186.415H322.823V188.197ZM296.501 188.197H287.957L288.879 186.415H297.269C297.184 186.657 297.097 186.891 297.005 187.115C296.849 187.499 296.681 187.86 296.501 188.197ZM272.481 188.197H240.821V186.415H271.936C272.105 187.027 272.287 187.621 272.481 188.197Z" fill="#25645D"/>
<path d="M336.243 191.765H307.823C308.097 191.196 308.355 190.603 308.596 189.981H336.533V190.171C336.533 190.732 336.431 191.271 336.243 191.765ZM291.895 191.765H289.561C288.496 191.592 287.564 191.173 286.76 190.52L287.037 189.981H295.241C294.319 190.956 293.204 191.551 291.895 191.765ZM273.959 191.765H241.113C240.924 191.271 240.821 190.732 240.821 190.171V189.981H273.147C273.4 190.6 273.671 191.195 273.959 191.765Z" fill="#25645D"/>
<path d="M332.035 194.669H306.136C306.183 194.604 306.228 194.537 306.273 194.471C306.476 194.173 306.673 193.867 306.864 193.549H335.005C334.213 194.247 333.173 194.669 332.035 194.669Z" fill="#25645D"/>
<path d="M275.703 194.669H245.32C244.183 194.669 243.143 194.247 242.351 193.549H274.956C275.099 193.781 275.247 194.008 275.396 194.231C275.497 194.379 275.599 194.525 275.703 194.669Z" fill="#25645D"/>
<path d="M306.864 193.549H274.956C274.604 192.983 274.271 192.388 273.959 191.765H289.561C289.936 191.827 290.327 191.857 290.733 191.857C291.136 191.857 291.524 191.827 291.895 191.765H307.823C307.523 192.392 307.203 192.985 306.864 193.549ZM308.596 189.981H295.241C295.711 189.485 296.131 188.891 296.501 188.197H309.224C309.028 188.815 308.819 189.409 308.596 189.981ZM287.037 189.981H273.147C272.911 189.407 272.689 188.813 272.481 188.197H287.957L287.037 189.981ZM309.736 186.415H297.269C297.459 185.869 297.632 185.275 297.789 184.631H310.153C310.025 185.241 309.885 185.836 309.736 186.415ZM288.879 186.415H271.936C271.776 185.836 271.627 185.24 271.489 184.631H289.799L288.879 186.415ZM310.489 182.847H298.16C298.26 182.281 298.351 181.687 298.431 181.063H310.757C310.676 181.671 310.588 182.265 310.489 182.847ZM290.719 182.847H271.128C271.023 182.264 270.927 181.671 270.839 181.063H291.64L290.719 182.847ZM310.964 179.279H298.628C298.681 178.705 298.727 178.111 298.767 177.495H311.119C311.075 178.1 311.023 178.696 310.964 179.279ZM292.56 179.279H270.615C270.552 178.695 270.496 178.1 270.448 177.495H282.741C282.756 177.721 282.771 177.945 282.787 178.167L283.133 177.495H293.48L292.56 179.279ZM311.227 175.711H298.859C298.883 175.132 298.901 174.537 298.913 173.927H311.291C311.276 174.531 311.255 175.125 311.227 175.711ZM294.401 175.711H284.053L284.973 173.927H295.321L294.401 175.711ZM282.651 175.711H270.331C270.301 175.125 270.277 174.531 270.26 173.927H282.596C282.609 174.539 282.628 175.132 282.651 175.711ZM311.319 172.143H298.935C298.936 171.988 298.936 171.832 298.936 171.675C298.936 171.227 298.933 170.789 298.928 170.359H311.309C311.316 170.792 311.319 171.231 311.319 171.675C311.319 171.832 311.319 171.987 311.319 172.143ZM296.241 172.143H285.895L286.815 170.359H297.163L296.241 172.143ZM282.573 172.143H270.231C270.231 171.987 270.229 171.832 270.229 171.675C270.229 171.231 270.233 170.792 270.239 170.359H282.58C282.576 170.789 282.573 171.228 282.573 171.675C282.573 171.832 282.573 171.988 282.573 172.143ZM311.26 168.575H298.888C298.873 168.08 298.855 167.596 298.832 167.121L298.083 168.575H287.735L288.656 166.791H311.167C311.205 167.375 311.236 167.971 311.26 168.575ZM282.615 168.575H270.283C270.304 167.971 270.331 167.375 270.365 166.791H282.684C282.656 167.368 282.633 167.963 282.615 168.575ZM311.025 165.007H289.576L290.496 163.223H310.829C310.903 163.805 310.968 164.401 311.025 165.007ZM282.792 165.007H270.491C270.541 164.4 270.6 163.805 270.665 163.223H282.951C282.891 163.795 282.839 164.389 282.792 165.007ZM310.573 161.439H291.417L292.337 159.655H310.248C310.367 160.236 310.475 160.831 310.573 161.439ZM283.171 161.439H270.895C270.983 160.829 271.08 160.235 271.187 159.655H283.472C283.361 160.216 283.26 160.811 283.171 161.439ZM309.845 157.871H293.259L294.179 156.087H309.351C309.527 156.665 309.692 157.26 309.845 157.871ZM283.888 157.871H271.551C271.689 157.259 271.84 156.664 272 156.087H284.483C284.476 156.103 284.469 156.12 284.463 156.136C284.253 156.659 284.061 157.237 283.888 157.871ZM308.748 154.303H295.099L295.467 153.589C295.115 153.173 294.732 152.816 294.321 152.519H308.016C308.276 153.092 308.52 153.688 308.748 154.303ZM285.404 154.303H272.552C272.763 153.685 272.989 153.089 273.229 152.519H287.076C286.444 152.973 285.887 153.568 285.404 154.303ZM307.124 150.735H274.065C274.393 150.105 274.743 149.512 275.113 148.951H306.024C306.053 148.993 306.083 149.037 306.112 149.08C306.468 149.607 306.804 150.159 307.124 150.735ZM304.643 147.167H276.459C277.019 146.519 277.617 145.924 278.256 145.383H302.832C303.471 145.924 304.073 146.517 304.643 147.167ZM300.249 143.599H280.865C282.371 142.78 284.041 142.185 285.879 141.815H295.379C297.147 142.185 298.771 142.78 300.249 143.599Z" fill="#B0C6C4"/>
<path d="M295.379 141.815H285.879C287.385 141.512 289.004 141.361 290.733 141.361C292.379 141.361 293.928 141.512 295.379 141.815Z" fill="#B2C9C5"/>
<path d="M302.832 145.383H278.256C279.063 144.703 279.932 144.108 280.865 143.599H300.249C301.165 144.108 302.027 144.703 302.832 145.383Z" fill="#B2C9C5"/>
<path d="M306.024 148.951H275.113C275.16 148.88 275.208 148.808 275.256 148.739C275.633 148.183 276.035 147.66 276.459 147.167H304.643C305.129 147.723 305.589 148.316 306.024 148.951Z" fill="#B2C9C5"/>
<path d="M308.016 152.519H294.321C293.307 151.785 292.113 151.412 290.733 151.412C289.32 151.412 288.1 151.781 287.076 152.519H273.229C273.491 151.896 273.769 151.301 274.065 150.735H307.124C307.439 151.305 307.736 151.9 308.016 152.519Z" fill="#B2C9C5"/>
<path d="M309.351 156.087H294.179L295.099 154.303H308.748C308.963 154.88 309.163 155.473 309.351 156.087ZM284.483 156.087H272C272.172 155.472 272.356 154.877 272.552 154.303H285.404C285.059 154.827 284.752 155.421 284.483 156.087Z" fill="#B2C9C5"/>
<path d="M310.248 159.655H292.337L293.259 157.871H309.845C309.991 158.451 310.125 159.045 310.248 159.655ZM283.472 159.655H271.187C271.299 159.044 271.42 158.449 271.551 157.871H283.888C283.736 158.423 283.597 159.017 283.472 159.655Z" fill="#B2C9C5"/>
<path d="M310.829 163.223H290.496L291.417 161.439H310.573C310.668 162.021 310.753 162.616 310.829 163.223ZM282.951 163.223H270.665C270.733 162.616 270.811 162.02 270.895 161.439H283.171C283.088 162.007 283.015 162.601 282.951 163.223Z" fill="#B2C9C5"/>
<path d="M311.167 166.791H288.656L289.576 165.007H311.025C311.08 165.591 311.127 166.185 311.167 166.791ZM282.684 166.791H270.365C270.4 166.184 270.443 165.591 270.491 165.007H282.792C282.751 165.581 282.713 166.176 282.684 166.791Z" fill="#B2C9C5"/>
<path d="M311.309 170.359H298.928C298.92 169.748 298.907 169.153 298.888 168.575H311.26C311.283 169.16 311.299 169.755 311.309 170.359ZM297.163 170.359H286.815L287.735 168.575H298.083L297.163 170.359ZM282.58 170.359H270.239C270.248 169.753 270.263 169.16 270.283 168.575H282.615C282.599 169.153 282.587 169.748 282.58 170.359Z" fill="#B2C9C5"/>
<path d="M311.291 173.927H298.913C298.925 173.347 298.933 172.752 298.935 172.143H311.319C311.315 172.747 311.307 173.341 311.291 173.927ZM295.321 173.927H284.973L285.895 172.143H296.241L295.321 173.927ZM282.596 173.927H270.26C270.244 173.341 270.235 172.745 270.231 172.143H282.573C282.576 172.753 282.584 173.348 282.596 173.927Z" fill="#B2C9C5"/>
<path d="M311.119 177.495H298.767C298.804 176.919 298.835 176.324 298.859 175.711H311.227C311.197 176.316 311.161 176.911 311.119 177.495ZM293.48 177.495H283.133L284.053 175.711H294.401L293.48 177.495ZM282.741 177.495H270.448C270.401 176.911 270.363 176.315 270.331 175.711H282.651C282.676 176.323 282.705 176.917 282.741 177.495Z" fill="#B2C9C5"/>
<path d="M310.757 181.063H298.431C298.504 180.492 298.569 179.897 298.628 179.279H310.964C310.903 179.885 310.835 180.48 310.757 181.063ZM291.64 181.063H270.839C270.756 180.48 270.681 179.885 270.615 179.279H292.56L291.64 181.063Z" fill="#B2C9C5"/>
<path d="M310.153 184.631H297.789C297.924 184.073 298.048 183.477 298.16 182.847H310.489C310.387 183.456 310.275 184.051 310.153 184.631ZM289.799 184.631H271.489C271.359 184.049 271.237 183.455 271.128 182.847H290.719L289.799 184.631Z" fill="#B2C9C5"/>
<path d="M309.224 188.197H296.501C296.681 187.86 296.849 187.499 297.005 187.115C297.097 186.891 297.184 186.657 297.269 186.415H309.736C309.577 187.028 309.407 187.623 309.224 188.197ZM287.957 188.197H272.481C272.287 187.621 272.105 187.027 271.936 186.415H288.879L287.957 188.197Z" fill="#B2C9C5"/>
<path d="M307.823 191.765H291.895C293.204 191.551 294.319 190.956 295.241 189.981H308.596C308.355 190.603 308.097 191.196 307.823 191.765ZM289.561 191.765H273.959C273.671 191.195 273.4 190.6 273.147 189.981H287.037L286.76 190.52C287.564 191.173 288.496 191.592 289.561 191.765Z" fill="#B2C9C5"/>
<path d="M306.136 194.669H275.703C275.599 194.525 275.497 194.379 275.396 194.231C275.247 194.008 275.099 193.781 274.956 193.549H306.864C306.673 193.867 306.476 194.173 306.273 194.471C306.228 194.537 306.183 194.604 306.136 194.669Z" fill="#B2C9C5"/>
<path d="M290.733 106.157C290.383 106.157 290.035 106.149 289.693 106.136H291.824C291.465 106.149 291.103 106.157 290.733 106.157ZM299.771 104.352H282.029C281 103.859 280.039 103.264 279.143 102.568H302.709C301.804 103.264 300.825 103.859 299.771 104.352ZM304.663 100.784H277.195C276.668 100.22 276.171 99.6107 275.703 98.9573H306.136C305.677 99.6107 305.187 100.22 304.663 100.784Z" fill="#B0C6C4"/>
<path d="M302.709 102.568H279.143C278.453 102.033 277.804 101.439 277.195 100.784H304.663C304.056 101.439 303.404 102.033 302.709 102.568Z" fill="#B2C9C5"/>
<path d="M291.824 106.136H289.693C286.824 106.021 284.269 105.427 282.029 104.352H299.771C297.476 105.427 294.827 106.021 291.824 106.136Z" fill="#B2C9C5"/>
<path d="M253.808 139.34H244.315V138.248H253.808V139.34ZM253.808 136.464H244.315V134.68H253.808V136.464ZM253.808 132.896H244.315V131.112H253.808V132.896ZM253.808 129.328H244.315V127.544H253.808V129.328ZM253.808 125.76H244.315V123.976H253.808V125.76ZM253.808 122.192H244.315V120.408H253.808V122.192ZM253.808 118.624H244.315V116.84H253.808V118.624ZM253.808 115.056H244.315V113.272H253.808V115.056ZM279.995 111.488H244.315V109.704H279.995V111.488ZM279.995 107.92H244.315V106.136H279.995V107.92ZM279.995 104.352H244.315V103.661H253.808H279.995V104.352Z" fill="#326D65"/>
<path d="M279.995 106.136H244.315V104.352H279.995V106.136Z" fill="#3D746D"/>
<path d="M279.995 109.704H244.315V107.92H279.995V109.704Z" fill="#3D746D"/>
<path d="M253.808 113.272H244.315V113.153V111.488H279.995V113.153H253.808V113.272Z" fill="#3D746D"/>
<path d="M253.808 116.84H244.315V115.056H253.808V116.84Z" fill="#3D746D"/>
<path d="M253.808 120.408H244.315V118.624H253.808V120.408Z" fill="#3D746D"/>
<path d="M253.808 123.976H244.315V122.192H253.808V123.976Z" fill="#3D746D"/>
<path d="M253.808 127.544H244.315V125.76H253.808V127.544Z" fill="#3D746D"/>
<path d="M253.808 131.112H244.315V129.328H253.808V131.112Z" fill="#3D746D"/>
<path d="M253.808 134.68H244.315V132.896H253.808V134.68Z" fill="#3D746D"/>
<path d="M253.808 138.248H244.315V136.464H253.808V138.248Z" fill="#3D746D"/>
<path d="M332.315 189.455H322.823V188.197H332.315V189.455ZM332.315 186.415H322.823V184.631H332.315V186.415ZM332.315 182.847H322.823V181.063H332.315V182.847ZM332.315 179.279H322.823V177.495H332.315V179.279ZM332.315 175.711H322.823V173.927H332.315V175.711ZM332.315 172.143H322.823V170.359H332.315V172.143ZM332.315 168.575H322.823V166.791H332.315V168.575ZM332.315 165.007H322.823V163.223H332.315V165.007ZM332.315 161.439H322.823V159.655H332.315V161.439ZM332.315 157.871H322.823V156.087H332.315V157.871ZM332.315 154.303H322.823V153.776H332.315V154.303Z" fill="#326D65"/>
<path d="M332.315 156.087H322.823V154.303H332.315V156.087Z" fill="#3D746D"/>
<path d="M332.315 159.655H322.823V157.871H332.315V159.655Z" fill="#3D746D"/>
<path d="M332.315 163.223H322.823V161.439H332.315V163.223Z" fill="#3D746D"/>
<path d="M332.315 166.791H322.823V165.007H332.315V166.791Z" fill="#3D746D"/>
<path d="M332.315 170.359H322.823V168.575H332.315V170.359Z" fill="#3D746D"/>
<path d="M332.315 173.927H322.823V172.143H332.315V173.927Z" fill="#3D746D"/>
<path d="M332.315 177.495H322.823V175.711H332.315V177.495Z" fill="#3D746D"/>
<path d="M332.315 181.063H322.823V179.279H332.315V181.063Z" fill="#3D746D"/>
<path d="M332.315 184.631H322.823V182.847H332.315V184.631Z" fill="#3D746D"/>
<path d="M332.315 188.197H322.823V186.415H332.315V188.197Z" fill="#3D746D"/>
<path d="M370.455 266.513L378.536 273.207C379.613 274.099 379.763 275.695 378.871 276.771C377.98 277.847 376.384 277.997 375.308 277.105L367.227 270.412C366.149 269.52 366 267.924 366.892 266.848C367.784 265.771 369.379 265.621 370.455 266.513Z" fill="#FFDE41"/>
<path d="M361.872 272.468L363.383 282.852C363.584 284.236 362.625 285.52 361.241 285.721C359.859 285.923 358.575 284.964 358.373 283.581L356.863 273.196C356.663 271.813 357.62 270.528 359.004 270.328C360.387 270.127 361.672 271.084 361.872 272.468Z" fill="#FFDE41"/>
<path d="M178.151 361.819H164.993V352.507H177.24V346.232H164.993V338.287H178.151V332.012H157.352V368.144H178.151V361.819ZM193.332 338.287H195.66C198.14 338.287 199.961 338.641 201.125 339.349C202.289 340.108 202.896 341.323 202.896 343.044C202.896 344.764 202.34 346.029 201.176 346.839C200.012 347.649 198.241 348.053 195.812 348.053H193.332V338.287ZM197.431 354.279L206.035 368.144H214.536C212.865 365.765 209.375 360.503 203.909 352.405C206.035 351.444 207.704 350.179 208.868 348.509C210.032 346.839 210.639 344.967 210.639 342.841C210.639 339.197 209.475 336.465 207.097 334.693C204.769 332.923 201.125 332.012 196.217 332.012H185.691V368.144H193.332V354.279H197.431ZM226.732 338.287H229.06C231.539 338.287 233.361 338.641 234.525 339.349C235.689 340.108 236.296 341.323 236.296 343.044C236.296 344.764 235.74 346.029 234.576 346.839C233.412 347.649 231.64 348.053 229.212 348.053H226.732V338.287ZM230.831 354.279L239.433 368.144H247.936C246.265 365.765 242.773 360.503 237.308 352.405C239.433 351.444 241.104 350.179 242.268 348.509C243.432 346.839 244.039 344.967 244.039 342.841C244.039 339.197 242.875 336.465 240.496 334.693C238.168 332.923 234.525 332.012 229.616 332.012H219.091V368.144H226.732V354.279H230.831ZM280.88 336.263C277.944 333.075 273.693 331.455 268.127 331.455C262.56 331.455 258.309 333.024 255.324 336.212C252.339 339.4 250.871 343.955 250.871 349.977C250.871 355.999 252.339 360.604 255.324 363.843C258.309 367.031 262.56 368.651 268.076 368.651C273.592 368.651 277.843 367.031 280.829 363.843C283.815 360.604 285.283 355.999 285.283 350.027C285.283 344.056 283.815 339.451 280.88 336.263ZM261.244 340.919C262.763 338.844 265.091 337.832 268.127 337.832C274.2 337.832 277.236 341.88 277.236 350.027C277.236 358.175 274.2 362.223 268.076 362.223C265.04 362.223 262.763 361.211 261.193 359.136C259.676 357.112 258.917 354.076 258.917 350.027C258.917 345.979 259.676 342.943 261.244 340.919ZM300.413 338.287H302.741C305.22 338.287 307.043 338.641 308.207 339.349C309.371 340.108 309.977 341.323 309.977 343.044C309.977 344.764 309.421 346.029 308.257 346.839C307.093 347.649 305.321 348.053 302.893 348.053H300.413V338.287ZM304.512 354.279L313.115 368.144H321.617C319.947 365.765 316.455 360.503 310.989 352.405C313.115 351.444 314.785 350.179 315.949 348.509C317.113 346.839 317.72 344.967 317.72 342.841C317.72 339.197 316.556 336.465 314.177 334.693C311.849 332.923 308.207 332.012 303.297 332.012H292.772V368.144H300.413V354.279H304.512ZM325.665 367.688C326.424 368.448 327.487 368.801 328.853 368.801C330.22 368.801 331.283 368.448 332.041 367.688C332.8 366.929 333.155 365.917 333.155 364.601C333.155 363.235 332.8 362.223 332.041 361.464C331.283 360.756 330.22 360.401 328.853 360.401C327.436 360.401 326.373 360.756 325.615 361.464C324.856 362.172 324.501 363.235 324.501 364.601C324.501 365.917 324.907 366.98 325.665 367.688ZM325.665 347.345C326.424 348.053 327.487 348.408 328.853 348.408C330.169 348.408 331.232 348.053 331.991 347.295C332.749 346.587 333.155 345.524 333.155 344.208C333.155 342.841 332.8 341.829 332.041 341.071C331.283 340.361 330.22 340.008 328.853 340.008C327.436 340.008 326.373 340.361 325.615 341.071C324.856 341.779 324.501 342.841 324.501 344.208C324.501 345.575 324.907 346.587 325.665 347.345Z" fill="white"/>
<path d="M377.3 354.733H372.948V332.012H365.913L350.075 355.341V360.655H365.509V368.144H372.948V360.655H377.3V354.733ZM356.804 354.733L363.433 344.713C364.295 343.448 365.003 342.133 365.609 340.767H365.812C365.761 341.071 365.711 342.184 365.609 344.157C365.56 346.08 365.509 347.599 365.509 348.611V354.733H356.804ZM401.985 336.212C399.86 333.024 396.723 331.455 392.521 331.455C388.271 331.455 385.083 332.973 383.008 336.009C380.933 338.995 379.921 343.701 379.921 350.077C379.921 356.201 380.984 360.807 383.109 363.944C385.235 367.081 388.372 368.651 392.521 368.651C396.823 368.651 400.012 367.132 402.087 364.096C404.161 361.059 405.173 356.404 405.173 350.077C405.173 344.005 404.111 339.349 401.985 336.212ZM388.676 340.513C389.435 338.591 390.751 337.629 392.521 337.629C394.293 337.629 395.559 338.591 396.368 340.513C397.177 342.487 397.583 345.624 397.583 350.077C397.583 354.48 397.177 357.619 396.368 359.541C395.609 361.515 394.293 362.476 392.521 362.476C390.7 362.476 389.435 361.515 388.676 359.592C387.917 357.669 387.512 354.531 387.512 350.077C387.512 345.624 387.917 342.487 388.676 340.513ZM435.071 354.733H430.719V332.012H423.684L407.845 355.341V360.655H423.28V368.144H430.719V360.655H435.071V354.733ZM414.576 354.733L421.205 344.713C422.065 343.448 422.773 342.133 423.381 340.767H423.583C423.533 341.071 423.483 342.184 423.381 344.157C423.331 346.08 423.28 347.599 423.28 348.611V354.733H414.576Z" fill="white"/>
<path d="M323.191 87.1413L327.028 81.6707C327.137 81.5147 327.175 81.336 327.175 81.16H325.215L321.351 86.664L317.16 89.844C316.768 90.14 316.692 90.6987 316.989 91.0907C317.164 91.3213 317.429 91.4427 317.699 91.4427C317.885 91.4427 318.076 91.3827 318.236 91.2613L321.963 88.4333L325.295 91.3053L324.108 95.6573C323.977 96.132 324.257 96.6213 324.732 96.7507L324.967 96.7827C325.359 96.7827 325.716 96.5227 325.824 96.1267L327.159 91.232C327.251 90.9013 327.141 90.548 326.881 90.324L323.191 87.1413Z" fill="#C29D79"/>
</svg>
